solid OpenSCAD_Model
  facet normal 0 0 -1
    outer loop
      vertex -10.5 -44.507 -4.25
      vertex 94.5 -32.507 -4.25
      vertex 94.5 -44.507 -4.25
    endloop
  endfacet
  facet normal -0 0 -1
    outer loop
      vertex 94.5 -32.507 -4.25
      vertex -10.5 -44.507 -4.25
      vertex -10.5 -32.507 -4.25
    endloop
  endfacet
  facet normal -0 0 1
    outer loop
      vertex 94.3078 -38.088 4.25
      vertex 94.5 -44.507 4.25
      vertex 94.5 -38.088 4.25
    endloop
  endfacet
  facet normal 0 0 1
    outer loop
      vertex 89.6922 -38.088 4.25
      vertex 94.3078 -38.088 4.25
      vertex 92.4037 -34.5071 4.25
    endloop
  endfacet
  facet normal 0 0 1
    outer loop
      vertex 89.6922 -38.088 4.25
      vertex 92.4037 -34.5071 4.25
      vertex 91.5963 -34.5071 4.25
    endloop
  endfacet
  facet normal 0 0 1
    outer loop
      vertex 94.3078 -38.088 4.25
      vertex 89.6922 -38.088 4.25
      vertex 94.5 -44.507 4.25
    endloop
  endfacet
  facet normal -0 0 1
    outer loop
      vertex 89.3078 -38.088 4.25
      vertex 94.5 -44.507 4.25
      vertex 89.6922 -38.088 4.25
    endloop
  endfacet
  facet normal -0 0 1
    outer loop
      vertex 86.5963 -34.5071 4.25
      vertex 89.3078 -38.088 4.25
      vertex 87.4037 -34.5071 4.25
    endloop
  endfacet
  facet normal 0 0 1
    outer loop
      vertex 84.6922 -38.088 4.25
      vertex 89.3078 -38.088 4.25
      vertex 86.5963 -34.5071 4.25
    endloop
  endfacet
  facet normal -0 0 1
    outer loop
      vertex 84.6922 -38.088 4.25
      vertex 94.5 -44.507 4.25
      vertex 89.3078 -38.088 4.25
    endloop
  endfacet
  facet normal -0 0 1
    outer loop
      vertex 84.3078 -38.088 4.25
      vertex 94.5 -44.507 4.25
      vertex 84.6922 -38.088 4.25
    endloop
  endfacet
  facet normal -0 0 1
    outer loop
      vertex 81.5963 -34.5071 4.25
      vertex 84.3078 -38.088 4.25
      vertex 82.4037 -34.5071 4.25
    endloop
  endfacet
  facet normal 0 0 1
    outer loop
      vertex 79.6922 -38.088 4.25
      vertex 84.3078 -38.088 4.25
      vertex 81.5963 -34.5071 4.25
    endloop
  endfacet
  facet normal -0 0 1
    outer loop
      vertex 79.6922 -38.088 4.25
      vertex 94.5 -44.507 4.25
      vertex 84.3078 -38.088 4.25
    endloop
  endfacet
  facet normal -0 0 1
    outer loop
      vertex 79.3078 -38.088 4.25
      vertex 94.5 -44.507 4.25
      vertex 79.6922 -38.088 4.25
    endloop
  endfacet
  facet normal -0 0 1
    outer loop
      vertex 76.5963 -34.5071 4.25
      vertex 79.3078 -38.088 4.25
      vertex 77.4037 -34.5071 4.25
    endloop
  endfacet
  facet normal 0 0 1
    outer loop
      vertex 74.6922 -38.088 4.25
      vertex 79.3078 -38.088 4.25
      vertex 76.5963 -34.5071 4.25
    endloop
  endfacet
  facet normal -0 0 1
    outer loop
      vertex 74.6922 -38.088 4.25
      vertex 94.5 -44.507 4.25
      vertex 79.3078 -38.088 4.25
    endloop
  endfacet
  facet normal -0 0 1
    outer loop
      vertex 74.3078 -38.088 4.25
      vertex 94.5 -44.507 4.25
      vertex 74.6922 -38.088 4.25
    endloop
  endfacet
  facet normal -0 0 1
    outer loop
      vertex 71.5963 -34.5071 4.25
      vertex 74.3078 -38.088 4.25
      vertex 72.4037 -34.5071 4.25
    endloop
  endfacet
  facet normal 0 0 1
    outer loop
      vertex 69.6922 -38.088 4.25
      vertex 74.3078 -38.088 4.25
      vertex 71.5963 -34.5071 4.25
    endloop
  endfacet
  facet normal -0 0 1
    outer loop
      vertex 69.6922 -38.088 4.25
      vertex 94.5 -44.507 4.25
      vertex 74.3078 -38.088 4.25
    endloop
  endfacet
  facet normal -0 0 1
    outer loop
      vertex 69.3078 -38.088 4.25
      vertex 94.5 -44.507 4.25
      vertex 69.6922 -38.088 4.25
    endloop
  endfacet
  facet normal -0 0 1
    outer loop
      vertex 66.5963 -34.5071 4.25
      vertex 69.3078 -38.088 4.25
      vertex 67.4037 -34.5071 4.25
    endloop
  endfacet
  facet normal 0 0 1
    outer loop
      vertex 64.6922 -38.088 4.25
      vertex 69.3078 -38.088 4.25
      vertex 66.5963 -34.5071 4.25
    endloop
  endfacet
  facet normal -0 0 1
    outer loop
      vertex 64.6922 -38.088 4.25
      vertex 94.5 -44.507 4.25
      vertex 69.3078 -38.088 4.25
    endloop
  endfacet
  facet normal -0 0 1
    outer loop
      vertex 64.3078 -38.088 4.25
      vertex 94.5 -44.507 4.25
      vertex 64.6922 -38.088 4.25
    endloop
  endfacet
  facet normal -0 0 1
    outer loop
      vertex 61.5963 -34.5071 4.25
      vertex 64.3078 -38.088 4.25
      vertex 62.4037 -34.5071 4.25
    endloop
  endfacet
  facet normal 0 0 1
    outer loop
      vertex 59.6922 -38.088 4.25
      vertex 64.3078 -38.088 4.25
      vertex 61.5963 -34.5071 4.25
    endloop
  endfacet
  facet normal -0 0 1
    outer loop
      vertex 59.6922 -38.088 4.25
      vertex 94.5 -44.507 4.25
      vertex 64.3078 -38.088 4.25
    endloop
  endfacet
  facet normal -0 0 1
    outer loop
      vertex 59.3078 -38.088 4.25
      vertex 94.5 -44.507 4.25
      vertex 59.6922 -38.088 4.25
    endloop
  endfacet
  facet normal -0 0 1
    outer loop
      vertex 56.5963 -34.5071 4.25
      vertex 59.3078 -38.088 4.25
      vertex 57.4037 -34.5071 4.25
    endloop
  endfacet
  facet normal 0 0 1
    outer loop
      vertex 54.6922 -38.088 4.25
      vertex 59.3078 -38.088 4.25
      vertex 56.5963 -34.5071 4.25
    endloop
  endfacet
  facet normal -0 0 1
    outer loop
      vertex 54.6922 -38.088 4.25
      vertex 94.5 -44.507 4.25
      vertex 59.3078 -38.088 4.25
    endloop
  endfacet
  facet normal -0 0 1
    outer loop
      vertex 54.3078 -38.088 4.25
      vertex 94.5 -44.507 4.25
      vertex 54.6922 -38.088 4.25
    endloop
  endfacet
  facet normal -0 0 1
    outer loop
      vertex 51.5963 -34.5071 4.25
      vertex 54.3078 -38.088 4.25
      vertex 52.4037 -34.5071 4.25
    endloop
  endfacet
  facet normal 0 0 1
    outer loop
      vertex 49.6922 -38.088 4.25
      vertex 54.3078 -38.088 4.25
      vertex 51.5963 -34.5071 4.25
    endloop
  endfacet
  facet normal -0 0 1
    outer loop
      vertex 49.6922 -38.088 4.25
      vertex 94.5 -44.507 4.25
      vertex 54.3078 -38.088 4.25
    endloop
  endfacet
  facet normal -0 0 1
    outer loop
      vertex 49.3078 -38.088 4.25
      vertex 94.5 -44.507 4.25
      vertex 49.6922 -38.088 4.25
    endloop
  endfacet
  facet normal -0 0 1
    outer loop
      vertex 46.5963 -34.5071 4.25
      vertex 49.3078 -38.088 4.25
      vertex 47.4037 -34.5071 4.25
    endloop
  endfacet
  facet normal 0 0 1
    outer loop
      vertex 44.6922 -38.088 4.25
      vertex 49.3078 -38.088 4.25
      vertex 46.5963 -34.5071 4.25
    endloop
  endfacet
  facet normal -0 0 1
    outer loop
      vertex 44.6922 -38.088 4.25
      vertex 94.5 -44.507 4.25
      vertex 49.3078 -38.088 4.25
    endloop
  endfacet
  facet normal -0 0 1
    outer loop
      vertex 44.3078 -38.088 4.25
      vertex 94.5 -44.507 4.25
      vertex 44.6922 -38.088 4.25
    endloop
  endfacet
  facet normal -0 0 1
    outer loop
      vertex 41.5963 -34.5071 4.25
      vertex 44.3078 -38.088 4.25
      vertex 42.4037 -34.5071 4.25
    endloop
  endfacet
  facet normal 0 0 1
    outer loop
      vertex 39.6922 -38.088 4.25
      vertex 44.3078 -38.088 4.25
      vertex 41.5963 -34.5071 4.25
    endloop
  endfacet
  facet normal -0 0 1
    outer loop
      vertex 39.6922 -38.088 4.25
      vertex 94.5 -44.507 4.25
      vertex 44.3078 -38.088 4.25
    endloop
  endfacet
  facet normal 0 0 1
    outer loop
      vertex -10.5 -44.507 4.25
      vertex 39.6922 -38.088 4.25
      vertex 39.3078 -38.088 4.25
    endloop
  endfacet
  facet normal -0 0 1
    outer loop
      vertex 36.5963 -34.5071 4.25
      vertex 39.3078 -38.088 4.25
      vertex 37.4037 -34.5071 4.25
    endloop
  endfacet
  facet normal 0 0 1
    outer loop
      vertex 34.6922 -38.088 4.25
      vertex 39.3078 -38.088 4.25
      vertex 36.5963 -34.5071 4.25
    endloop
  endfacet
  facet normal 0 0 1
    outer loop
      vertex -10.5 -44.507 4.25
      vertex 39.3078 -38.088 4.25
      vertex 34.6922 -38.088 4.25
    endloop
  endfacet
  facet normal 0 0 1
    outer loop
      vertex -10.5 -44.507 4.25
      vertex 34.6922 -38.088 4.25
      vertex 34.3078 -38.088 4.25
    endloop
  endfacet
  facet normal -0 0 1
    outer loop
      vertex 31.5963 -34.5071 4.25
      vertex 34.3078 -38.088 4.25
      vertex 32.4037 -34.5071 4.25
    endloop
  endfacet
  facet normal 0 0 1
    outer loop
      vertex 29.6922 -38.088 4.25
      vertex 34.3078 -38.088 4.25
      vertex 31.5963 -34.5071 4.25
    endloop
  endfacet
  facet normal 0 0 1
    outer loop
      vertex -10.5 -44.507 4.25
      vertex 34.3078 -38.088 4.25
      vertex 29.6922 -38.088 4.25
    endloop
  endfacet
  facet normal 0 0 1
    outer loop
      vertex -10.5 -44.507 4.25
      vertex 29.6922 -38.088 4.25
      vertex 29.3078 -38.088 4.25
    endloop
  endfacet
  facet normal -0 0 1
    outer loop
      vertex 26.5963 -34.5071 4.25
      vertex 29.3078 -38.088 4.25
      vertex 27.4037 -34.5071 4.25
    endloop
  endfacet
  facet normal 0 0 1
    outer loop
      vertex 24.6922 -38.088 4.25
      vertex 29.3078 -38.088 4.25
      vertex 26.5963 -34.5071 4.25
    endloop
  endfacet
  facet normal 0 0 1
    outer loop
      vertex -10.5 -44.507 4.25
      vertex 29.3078 -38.088 4.25
      vertex 24.6922 -38.088 4.25
    endloop
  endfacet
  facet normal 0 0 1
    outer loop
      vertex -10.5 -44.507 4.25
      vertex 24.6922 -38.088 4.25
      vertex 24.3078 -38.088 4.25
    endloop
  endfacet
  facet normal -0 0 1
    outer loop
      vertex 21.5963 -34.5071 4.25
      vertex 24.3078 -38.088 4.25
      vertex 22.4037 -34.5071 4.25
    endloop
  endfacet
  facet normal 0 0 1
    outer loop
      vertex 19.6922 -38.088 4.25
      vertex 24.3078 -38.088 4.25
      vertex 21.5963 -34.5071 4.25
    endloop
  endfacet
  facet normal 0 0 1
    outer loop
      vertex -10.5 -44.507 4.25
      vertex 24.3078 -38.088 4.25
      vertex 19.6922 -38.088 4.25
    endloop
  endfacet
  facet normal 0 0 1
    outer loop
      vertex -10.5 -44.507 4.25
      vertex 19.6922 -38.088 4.25
      vertex 19.3078 -38.088 4.25
    endloop
  endfacet
  facet normal -0 0 1
    outer loop
      vertex 16.5963 -34.5071 4.25
      vertex 19.3078 -38.088 4.25
      vertex 17.4037 -34.5071 4.25
    endloop
  endfacet
  facet normal 0 0 1
    outer loop
      vertex 14.6922 -38.088 4.25
      vertex 19.3078 -38.088 4.25
      vertex 16.5963 -34.5071 4.25
    endloop
  endfacet
  facet normal 0 0 1
    outer loop
      vertex -10.5 -44.507 4.25
      vertex 19.3078 -38.088 4.25
      vertex 14.6922 -38.088 4.25
    endloop
  endfacet
  facet normal 0 0 1
    outer loop
      vertex -10.5 -44.507 4.25
      vertex 14.6922 -38.088 4.25
      vertex 14.3078 -38.088 4.25
    endloop
  endfacet
  facet normal -0 0 1
    outer loop
      vertex 11.5963 -34.5071 4.25
      vertex 14.3078 -38.088 4.25
      vertex 12.4037 -34.5071 4.25
    endloop
  endfacet
  facet normal 0 0 1
    outer loop
      vertex 9.6922 -38.088 4.25
      vertex 14.3078 -38.088 4.25
      vertex 11.5963 -34.5071 4.25
    endloop
  endfacet
  facet normal 0 0 1
    outer loop
      vertex -10.5 -44.507 4.25
      vertex 14.3078 -38.088 4.25
      vertex 9.6922 -38.088 4.25
    endloop
  endfacet
  facet normal 0 0 1
    outer loop
      vertex -10.5 -44.507 4.25
      vertex 9.6922 -38.088 4.25
      vertex 9.3078 -38.088 4.25
    endloop
  endfacet
  facet normal -0 0 1
    outer loop
      vertex 6.59625 -34.5071 4.25
      vertex 9.3078 -38.088 4.25
      vertex 7.40375 -34.5071 4.25
    endloop
  endfacet
  facet normal 0 0 1
    outer loop
      vertex 4.6922 -38.088 4.25
      vertex 9.3078 -38.088 4.25
      vertex 6.59625 -34.5071 4.25
    endloop
  endfacet
  facet normal 0 0 1
    outer loop
      vertex -10.5 -44.507 4.25
      vertex 9.3078 -38.088 4.25
      vertex 4.6922 -38.088 4.25
    endloop
  endfacet
  facet normal 0 0 1
    outer loop
      vertex -10.5 -44.507 4.25
      vertex 4.6922 -38.088 4.25
      vertex 4.3078 -38.088 4.25
    endloop
  endfacet
  facet normal -0 0 1
    outer loop
      vertex 1.59625 -34.5071 4.25
      vertex 4.3078 -38.088 4.25
      vertex 2.40375 -34.5071 4.25
    endloop
  endfacet
  facet normal 0 0 1
    outer loop
      vertex -0.3078 -38.088 4.25
      vertex 4.3078 -38.088 4.25
      vertex 1.59625 -34.5071 4.25
    endloop
  endfacet
  facet normal 0 0 1
    outer loop
      vertex -10.5 -44.507 4.25
      vertex 4.3078 -38.088 4.25
      vertex -0.3078 -38.088 4.25
    endloop
  endfacet
  facet normal 0 0 1
    outer loop
      vertex -10.5 -44.507 4.25
      vertex -0.3078 -38.088 4.25
      vertex -0.6922 -38.088 4.25
    endloop
  endfacet
  facet normal -0 0 1
    outer loop
      vertex -3.40375 -34.5071 4.25
      vertex -0.6922 -38.088 4.25
      vertex -2.59625 -34.5071 4.25
    endloop
  endfacet
  facet normal 0 0 1
    outer loop
      vertex -5.3078 -38.088 4.25
      vertex -0.6922 -38.088 4.25
      vertex -3.40375 -34.5071 4.25
    endloop
  endfacet
  facet normal 0 0 1
    outer loop
      vertex -10.5 -44.507 4.25
      vertex -0.6922 -38.088 4.25
      vertex -5.3078 -38.088 4.25
    endloop
  endfacet
  facet normal 0 0 1
    outer loop
      vertex -10.5 -44.507 4.25
      vertex -5.3078 -38.088 4.25
      vertex -5.6922 -38.088 4.25
    endloop
  endfacet
  facet normal -0 0 1
    outer loop
      vertex -8.40375 -34.5071 4.25
      vertex -5.6922 -38.088 4.25
      vertex -7.59625 -34.5071 4.25
    endloop
  endfacet
  facet normal 0 0 1
    outer loop
      vertex -10.3078 -38.088 4.25
      vertex -5.6922 -38.088 4.25
      vertex -8.40375 -34.5071 4.25
    endloop
  endfacet
  facet normal 0 0 1
    outer loop
      vertex -10.5 -44.507 4.25
      vertex -5.6922 -38.088 4.25
      vertex -10.3078 -38.088 4.25
    endloop
  endfacet
  facet normal 0 0 1
    outer loop
      vertex -10.5 -44.507 4.25
      vertex -10.3078 -38.088 4.25
      vertex -10.5 -38.088 4.25
    endloop
  endfacet
  facet normal 0 0 1
    outer loop
      vertex 39.6922 -38.088 4.25
      vertex -10.5 -44.507 4.25
      vertex 94.5 -44.507 4.25
    endloop
  endfacet
  facet normal 0 1 -0
    outer loop
      vertex -5.3078 -38.088 -3.25
      vertex -5.6922 -38.088 4.25
      vertex -5.3078 -38.088 4.25
    endloop
  endfacet
  facet normal 0 1 0
    outer loop
      vertex -5.6922 -38.088 4.25
      vertex -5.3078 -38.088 -3.25
      vertex -5.6922 -38.088 -3.25
    endloop
  endfacet
  facet normal 0.882945 0.469476 0
    outer loop
      vertex -5.6922 -38.088 4.25
      vertex -7.59625 -34.5071 -3.25
      vertex -7.59625 -34.5071 4.25
    endloop
  endfacet
  facet normal 0.882945 0.469476 0
    outer loop
      vertex -7.59625 -34.5071 -3.25
      vertex -5.6922 -38.088 4.25
      vertex -5.6922 -38.088 -3.25
    endloop
  endfacet
  facet normal 0 1 -0
    outer loop
      vertex -7.59625 -34.5071 -3.25
      vertex -8.40375 -34.5071 4.25
      vertex -7.59625 -34.5071 4.25
    endloop
  endfacet
  facet normal 0 1 0
    outer loop
      vertex -8.40375 -34.5071 4.25
      vertex -7.59625 -34.5071 -3.25
      vertex -8.40375 -34.5071 -3.25
    endloop
  endfacet
  facet normal -0.882945 0.469476 0
    outer loop
      vertex -10.3078 -38.088 -3.25
      vertex -8.40375 -34.5071 4.25
      vertex -8.40375 -34.5071 -3.25
    endloop
  endfacet
  facet normal -0.882945 0.469476 0
    outer loop
      vertex -8.40375 -34.5071 4.25
      vertex -10.3078 -38.088 -3.25
      vertex -10.3078 -38.088 4.25
    endloop
  endfacet
  facet normal 0 1 -0
    outer loop
      vertex -10.3078 -38.088 -3.25
      vertex -10.5 -38.088 4.25
      vertex -10.3078 -38.088 4.25
    endloop
  endfacet
  facet normal 0 1 0
    outer loop
      vertex -10.5 -38.088 4.25
      vertex -10.3078 -38.088 -3.25
      vertex -10.5 -38.088 -3.25
    endloop
  endfacet
  facet normal -1 0 0
    outer loop
      vertex -10.5 -32.507 -4.25
      vertex -10.5 -38.088 -3.25
      vertex -10.5 -32.507 -3.25
    endloop
  endfacet
  facet normal -1 0 0
    outer loop
      vertex -10.5 -38.088 -3.25
      vertex -10.5 -44.507 -3.25
      vertex -10.5 -38.088 4.25
    endloop
  endfacet
  facet normal -1 0 0
    outer loop
      vertex -10.5 -44.507 -4.25
      vertex -10.5 -38.088 -3.25
      vertex -10.5 -32.507 -4.25
    endloop
  endfacet
  facet normal -1 -0 0
    outer loop
      vertex -10.5 -38.088 -3.25
      vertex -10.5 -44.507 -4.25
      vertex -10.5 -44.507 -3.25
    endloop
  endfacet
  facet normal -1 -0 0
    outer loop
      vertex -10.5 -38.088 4.25
      vertex -10.5 -44.507 -3.25
      vertex -10.5 -44.507 4.25
    endloop
  endfacet
  facet normal 0 -1 0
    outer loop
      vertex -10.5 -44.507 -3.25
      vertex 94.5 -44.507 4.25
      vertex -10.5 -44.507 4.25
    endloop
  endfacet
  facet normal 0 -1 -0
    outer loop
      vertex 94.5 -44.507 4.25
      vertex -10.5 -44.507 -3.25
      vertex 94.5 -44.507 -3.25
    endloop
  endfacet
  facet normal 0 1 -0
    outer loop
      vertex -0.3078 -38.088 -3.25
      vertex -0.6922 -38.088 4.25
      vertex -0.3078 -38.088 4.25
    endloop
  endfacet
  facet normal 0 1 0
    outer loop
      vertex -0.6922 -38.088 4.25
      vertex -0.3078 -38.088 -3.25
      vertex -0.6922 -38.088 -3.25
    endloop
  endfacet
  facet normal 0.882945 0.469476 0
    outer loop
      vertex -0.6922 -38.088 4.25
      vertex -2.59625 -34.5071 -3.25
      vertex -2.59625 -34.5071 4.25
    endloop
  endfacet
  facet normal 0.882945 0.469476 0
    outer loop
      vertex -2.59625 -34.5071 -3.25
      vertex -0.6922 -38.088 4.25
      vertex -0.6922 -38.088 -3.25
    endloop
  endfacet
  facet normal 0 1 -0
    outer loop
      vertex -2.59625 -34.5071 -3.25
      vertex -3.40375 -34.5071 4.25
      vertex -2.59625 -34.5071 4.25
    endloop
  endfacet
  facet normal 0 1 0
    outer loop
      vertex -3.40375 -34.5071 4.25
      vertex -2.59625 -34.5071 -3.25
      vertex -3.40375 -34.5071 -3.25
    endloop
  endfacet
  facet normal -0.882945 0.469476 0
    outer loop
      vertex -5.3078 -38.088 -3.25
      vertex -3.40375 -34.5071 4.25
      vertex -3.40375 -34.5071 -3.25
    endloop
  endfacet
  facet normal -0.882945 0.469476 0
    outer loop
      vertex -3.40375 -34.5071 4.25
      vertex -5.3078 -38.088 -3.25
      vertex -5.3078 -38.088 4.25
    endloop
  endfacet
  facet normal 0 1 -0
    outer loop
      vertex 4.6922 -38.088 -3.25
      vertex 4.3078 -38.088 4.25
      vertex 4.6922 -38.088 4.25
    endloop
  endfacet
  facet normal 0 1 0
    outer loop
      vertex 4.3078 -38.088 4.25
      vertex 4.6922 -38.088 -3.25
      vertex 4.3078 -38.088 -3.25
    endloop
  endfacet
  facet normal 0.882945 0.469476 0
    outer loop
      vertex 4.3078 -38.088 4.25
      vertex 2.40375 -34.5071 -3.25
      vertex 2.40375 -34.5071 4.25
    endloop
  endfacet
  facet normal 0.882945 0.469476 0
    outer loop
      vertex 2.40375 -34.5071 -3.25
      vertex 4.3078 -38.088 4.25
      vertex 4.3078 -38.088 -3.25
    endloop
  endfacet
  facet normal 0 1 -0
    outer loop
      vertex 2.40375 -34.5071 -3.25
      vertex 1.59625 -34.5071 4.25
      vertex 2.40375 -34.5071 4.25
    endloop
  endfacet
  facet normal 0 1 0
    outer loop
      vertex 1.59625 -34.5071 4.25
      vertex 2.40375 -34.5071 -3.25
      vertex 1.59625 -34.5071 -3.25
    endloop
  endfacet
  facet normal -0.882945 0.469476 0
    outer loop
      vertex -0.3078 -38.088 -3.25
      vertex 1.59625 -34.5071 4.25
      vertex 1.59625 -34.5071 -3.25
    endloop
  endfacet
  facet normal -0.882945 0.469476 0
    outer loop
      vertex 1.59625 -34.5071 4.25
      vertex -0.3078 -38.088 -3.25
      vertex -0.3078 -38.088 4.25
    endloop
  endfacet
  facet normal 0 1 -0
    outer loop
      vertex 9.6922 -38.088 -3.25
      vertex 9.3078 -38.088 4.25
      vertex 9.6922 -38.088 4.25
    endloop
  endfacet
  facet normal 0 1 0
    outer loop
      vertex 9.3078 -38.088 4.25
      vertex 9.6922 -38.088 -3.25
      vertex 9.3078 -38.088 -3.25
    endloop
  endfacet
  facet normal 0.882945 0.469476 0
    outer loop
      vertex 9.3078 -38.088 4.25
      vertex 7.40375 -34.5071 -3.25
      vertex 7.40375 -34.5071 4.25
    endloop
  endfacet
  facet normal 0.882945 0.469476 0
    outer loop
      vertex 7.40375 -34.5071 -3.25
      vertex 9.3078 -38.088 4.25
      vertex 9.3078 -38.088 -3.25
    endloop
  endfacet
  facet normal 0 1 -0
    outer loop
      vertex 7.40375 -34.5071 -3.25
      vertex 6.59625 -34.5071 4.25
      vertex 7.40375 -34.5071 4.25
    endloop
  endfacet
  facet normal 0 1 0
    outer loop
      vertex 6.59625 -34.5071 4.25
      vertex 7.40375 -34.5071 -3.25
      vertex 6.59625 -34.5071 -3.25
    endloop
  endfacet
  facet normal -0.882945 0.469476 0
    outer loop
      vertex 4.6922 -38.088 -3.25
      vertex 6.59625 -34.5071 4.25
      vertex 6.59625 -34.5071 -3.25
    endloop
  endfacet
  facet normal -0.882945 0.469476 0
    outer loop
      vertex 6.59625 -34.5071 4.25
      vertex 4.6922 -38.088 -3.25
      vertex 4.6922 -38.088 4.25
    endloop
  endfacet
  facet normal 0 1 -0
    outer loop
      vertex 14.6922 -38.088 -3.25
      vertex 14.3078 -38.088 4.25
      vertex 14.6922 -38.088 4.25
    endloop
  endfacet
  facet normal 0 1 0
    outer loop
      vertex 14.3078 -38.088 4.25
      vertex 14.6922 -38.088 -3.25
      vertex 14.3078 -38.088 -3.25
    endloop
  endfacet
  facet normal 0.882945 0.469476 0
    outer loop
      vertex 14.3078 -38.088 4.25
      vertex 12.4037 -34.5071 -3.25
      vertex 12.4037 -34.5071 4.25
    endloop
  endfacet
  facet normal 0.882945 0.469476 0
    outer loop
      vertex 12.4037 -34.5071 -3.25
      vertex 14.3078 -38.088 4.25
      vertex 14.3078 -38.088 -3.25
    endloop
  endfacet
  facet normal 0 1 -0
    outer loop
      vertex 12.4037 -34.5071 -3.25
      vertex 11.5963 -34.5071 4.25
      vertex 12.4037 -34.5071 4.25
    endloop
  endfacet
  facet normal 0 1 0
    outer loop
      vertex 11.5963 -34.5071 4.25
      vertex 12.4037 -34.5071 -3.25
      vertex 11.5963 -34.5071 -3.25
    endloop
  endfacet
  facet normal -0.882945 0.469476 0
    outer loop
      vertex 9.6922 -38.088 -3.25
      vertex 11.5963 -34.5071 4.25
      vertex 11.5963 -34.5071 -3.25
    endloop
  endfacet
  facet normal -0.882945 0.469476 0
    outer loop
      vertex 11.5963 -34.5071 4.25
      vertex 9.6922 -38.088 -3.25
      vertex 9.6922 -38.088 4.25
    endloop
  endfacet
  facet normal 0 1 -0
    outer loop
      vertex 19.6922 -38.088 -3.25
      vertex 19.3078 -38.088 4.25
      vertex 19.6922 -38.088 4.25
    endloop
  endfacet
  facet normal 0 1 0
    outer loop
      vertex 19.3078 -38.088 4.25
      vertex 19.6922 -38.088 -3.25
      vertex 19.3078 -38.088 -3.25
    endloop
  endfacet
  facet normal 0.882945 0.469476 0
    outer loop
      vertex 19.3078 -38.088 4.25
      vertex 17.4037 -34.5071 -3.25
      vertex 17.4037 -34.5071 4.25
    endloop
  endfacet
  facet normal 0.882945 0.469476 0
    outer loop
      vertex 17.4037 -34.5071 -3.25
      vertex 19.3078 -38.088 4.25
      vertex 19.3078 -38.088 -3.25
    endloop
  endfacet
  facet normal 0 1 -0
    outer loop
      vertex 17.4037 -34.5071 -3.25
      vertex 16.5963 -34.5071 4.25
      vertex 17.4037 -34.5071 4.25
    endloop
  endfacet
  facet normal 0 1 0
    outer loop
      vertex 16.5963 -34.5071 4.25
      vertex 17.4037 -34.5071 -3.25
      vertex 16.5963 -34.5071 -3.25
    endloop
  endfacet
  facet normal -0.882945 0.469476 0
    outer loop
      vertex 14.6922 -38.088 -3.25
      vertex 16.5963 -34.5071 4.25
      vertex 16.5963 -34.5071 -3.25
    endloop
  endfacet
  facet normal -0.882945 0.469476 0
    outer loop
      vertex 16.5963 -34.5071 4.25
      vertex 14.6922 -38.088 -3.25
      vertex 14.6922 -38.088 4.25
    endloop
  endfacet
  facet normal 0 1 -0
    outer loop
      vertex 24.6922 -38.088 -3.25
      vertex 24.3078 -38.088 4.25
      vertex 24.6922 -38.088 4.25
    endloop
  endfacet
  facet normal 0 1 0
    outer loop
      vertex 24.3078 -38.088 4.25
      vertex 24.6922 -38.088 -3.25
      vertex 24.3078 -38.088 -3.25
    endloop
  endfacet
  facet normal 0.882945 0.469476 0
    outer loop
      vertex 24.3078 -38.088 4.25
      vertex 22.4037 -34.5071 -3.25
      vertex 22.4037 -34.5071 4.25
    endloop
  endfacet
  facet normal 0.882945 0.469476 0
    outer loop
      vertex 22.4037 -34.5071 -3.25
      vertex 24.3078 -38.088 4.25
      vertex 24.3078 -38.088 -3.25
    endloop
  endfacet
  facet normal 0 1 -0
    outer loop
      vertex 22.4037 -34.5071 -3.25
      vertex 21.5963 -34.5071 4.25
      vertex 22.4037 -34.5071 4.25
    endloop
  endfacet
  facet normal 0 1 0
    outer loop
      vertex 21.5963 -34.5071 4.25
      vertex 22.4037 -34.5071 -3.25
      vertex 21.5963 -34.5071 -3.25
    endloop
  endfacet
  facet normal -0.882945 0.469476 0
    outer loop
      vertex 19.6922 -38.088 -3.25
      vertex 21.5963 -34.5071 4.25
      vertex 21.5963 -34.5071 -3.25
    endloop
  endfacet
  facet normal -0.882945 0.469476 0
    outer loop
      vertex 21.5963 -34.5071 4.25
      vertex 19.6922 -38.088 -3.25
      vertex 19.6922 -38.088 4.25
    endloop
  endfacet
  facet normal 0 1 -0
    outer loop
      vertex 29.6922 -38.088 -3.25
      vertex 29.3078 -38.088 4.25
      vertex 29.6922 -38.088 4.25
    endloop
  endfacet
  facet normal 0 1 0
    outer loop
      vertex 29.3078 -38.088 4.25
      vertex 29.6922 -38.088 -3.25
      vertex 29.3078 -38.088 -3.25
    endloop
  endfacet
  facet normal 0.882945 0.469476 0
    outer loop
      vertex 29.3078 -38.088 4.25
      vertex 27.4037 -34.5071 -3.25
      vertex 27.4037 -34.5071 4.25
    endloop
  endfacet
  facet normal 0.882945 0.469476 0
    outer loop
      vertex 27.4037 -34.5071 -3.25
      vertex 29.3078 -38.088 4.25
      vertex 29.3078 -38.088 -3.25
    endloop
  endfacet
  facet normal 0 1 -0
    outer loop
      vertex 27.4037 -34.5071 -3.25
      vertex 26.5963 -34.5071 4.25
      vertex 27.4037 -34.5071 4.25
    endloop
  endfacet
  facet normal 0 1 0
    outer loop
      vertex 26.5963 -34.5071 4.25
      vertex 27.4037 -34.5071 -3.25
      vertex 26.5963 -34.5071 -3.25
    endloop
  endfacet
  facet normal -0.882945 0.469476 0
    outer loop
      vertex 24.6922 -38.088 -3.25
      vertex 26.5963 -34.5071 4.25
      vertex 26.5963 -34.5071 -3.25
    endloop
  endfacet
  facet normal -0.882945 0.469476 0
    outer loop
      vertex 26.5963 -34.5071 4.25
      vertex 24.6922 -38.088 -3.25
      vertex 24.6922 -38.088 4.25
    endloop
  endfacet
  facet normal 0 1 -0
    outer loop
      vertex 34.6922 -38.088 -3.25
      vertex 34.3078 -38.088 4.25
      vertex 34.6922 -38.088 4.25
    endloop
  endfacet
  facet normal 0 1 0
    outer loop
      vertex 34.3078 -38.088 4.25
      vertex 34.6922 -38.088 -3.25
      vertex 34.3078 -38.088 -3.25
    endloop
  endfacet
  facet normal 0.882945 0.469476 0
    outer loop
      vertex 34.3078 -38.088 4.25
      vertex 32.4037 -34.5071 -3.25
      vertex 32.4037 -34.5071 4.25
    endloop
  endfacet
  facet normal 0.882945 0.469476 0
    outer loop
      vertex 32.4037 -34.5071 -3.25
      vertex 34.3078 -38.088 4.25
      vertex 34.3078 -38.088 -3.25
    endloop
  endfacet
  facet normal 0 1 -0
    outer loop
      vertex 32.4037 -34.5071 -3.25
      vertex 31.5963 -34.5071 4.25
      vertex 32.4037 -34.5071 4.25
    endloop
  endfacet
  facet normal 0 1 0
    outer loop
      vertex 31.5963 -34.5071 4.25
      vertex 32.4037 -34.5071 -3.25
      vertex 31.5963 -34.5071 -3.25
    endloop
  endfacet
  facet normal -0.882945 0.469476 0
    outer loop
      vertex 29.6922 -38.088 -3.25
      vertex 31.5963 -34.5071 4.25
      vertex 31.5963 -34.5071 -3.25
    endloop
  endfacet
  facet normal -0.882945 0.469476 0
    outer loop
      vertex 31.5963 -34.5071 4.25
      vertex 29.6922 -38.088 -3.25
      vertex 29.6922 -38.088 4.25
    endloop
  endfacet
  facet normal 0 1 -0
    outer loop
      vertex 39.6922 -38.088 -3.25
      vertex 39.3078 -38.088 4.25
      vertex 39.6922 -38.088 4.25
    endloop
  endfacet
  facet normal 0 1 0
    outer loop
      vertex 39.3078 -38.088 4.25
      vertex 39.6922 -38.088 -3.25
      vertex 39.3078 -38.088 -3.25
    endloop
  endfacet
  facet normal 0.882945 0.469476 0
    outer loop
      vertex 39.3078 -38.088 4.25
      vertex 37.4037 -34.5071 -3.25
      vertex 37.4037 -34.5071 4.25
    endloop
  endfacet
  facet normal 0.882945 0.469476 0
    outer loop
      vertex 37.4037 -34.5071 -3.25
      vertex 39.3078 -38.088 4.25
      vertex 39.3078 -38.088 -3.25
    endloop
  endfacet
  facet normal 0 1 -0
    outer loop
      vertex 37.4037 -34.5071 -3.25
      vertex 36.5963 -34.5071 4.25
      vertex 37.4037 -34.5071 4.25
    endloop
  endfacet
  facet normal 0 1 0
    outer loop
      vertex 36.5963 -34.5071 4.25
      vertex 37.4037 -34.5071 -3.25
      vertex 36.5963 -34.5071 -3.25
    endloop
  endfacet
  facet normal -0.882945 0.469476 0
    outer loop
      vertex 34.6922 -38.088 -3.25
      vertex 36.5963 -34.5071 4.25
      vertex 36.5963 -34.5071 -3.25
    endloop
  endfacet
  facet normal -0.882945 0.469476 0
    outer loop
      vertex 36.5963 -34.5071 4.25
      vertex 34.6922 -38.088 -3.25
      vertex 34.6922 -38.088 4.25
    endloop
  endfacet
  facet normal 0 1 -0
    outer loop
      vertex 44.6922 -38.088 -3.25
      vertex 44.3078 -38.088 4.25
      vertex 44.6922 -38.088 4.25
    endloop
  endfacet
  facet normal 0 1 0
    outer loop
      vertex 44.3078 -38.088 4.25
      vertex 44.6922 -38.088 -3.25
      vertex 44.3078 -38.088 -3.25
    endloop
  endfacet
  facet normal 0.882945 0.469476 0
    outer loop
      vertex 44.3078 -38.088 4.25
      vertex 42.4037 -34.5071 -3.25
      vertex 42.4037 -34.5071 4.25
    endloop
  endfacet
  facet normal 0.882945 0.469476 0
    outer loop
      vertex 42.4037 -34.5071 -3.25
      vertex 44.3078 -38.088 4.25
      vertex 44.3078 -38.088 -3.25
    endloop
  endfacet
  facet normal 0 1 -0
    outer loop
      vertex 42.4037 -34.5071 -3.25
      vertex 41.5963 -34.5071 4.25
      vertex 42.4037 -34.5071 4.25
    endloop
  endfacet
  facet normal 0 1 0
    outer loop
      vertex 41.5963 -34.5071 4.25
      vertex 42.4037 -34.5071 -3.25
      vertex 41.5963 -34.5071 -3.25
    endloop
  endfacet
  facet normal -0.882945 0.469476 0
    outer loop
      vertex 39.6922 -38.088 -3.25
      vertex 41.5963 -34.5071 4.25
      vertex 41.5963 -34.5071 -3.25
    endloop
  endfacet
  facet normal -0.882945 0.469476 0
    outer loop
      vertex 41.5963 -34.5071 4.25
      vertex 39.6922 -38.088 -3.25
      vertex 39.6922 -38.088 4.25
    endloop
  endfacet
  facet normal 0 1 -0
    outer loop
      vertex 49.6922 -38.088 -3.25
      vertex 49.3078 -38.088 4.25
      vertex 49.6922 -38.088 4.25
    endloop
  endfacet
  facet normal 0 1 0
    outer loop
      vertex 49.3078 -38.088 4.25
      vertex 49.6922 -38.088 -3.25
      vertex 49.3078 -38.088 -3.25
    endloop
  endfacet
  facet normal 0.882945 0.469476 0
    outer loop
      vertex 49.3078 -38.088 4.25
      vertex 47.4037 -34.5071 -3.25
      vertex 47.4037 -34.5071 4.25
    endloop
  endfacet
  facet normal 0.882945 0.469476 0
    outer loop
      vertex 47.4037 -34.5071 -3.25
      vertex 49.3078 -38.088 4.25
      vertex 49.3078 -38.088 -3.25
    endloop
  endfacet
  facet normal 0 1 -0
    outer loop
      vertex 47.4037 -34.5071 -3.25
      vertex 46.5963 -34.5071 4.25
      vertex 47.4037 -34.5071 4.25
    endloop
  endfacet
  facet normal 0 1 0
    outer loop
      vertex 46.5963 -34.5071 4.25
      vertex 47.4037 -34.5071 -3.25
      vertex 46.5963 -34.5071 -3.25
    endloop
  endfacet
  facet normal -0.882945 0.469476 0
    outer loop
      vertex 44.6922 -38.088 -3.25
      vertex 46.5963 -34.5071 4.25
      vertex 46.5963 -34.5071 -3.25
    endloop
  endfacet
  facet normal -0.882945 0.469476 0
    outer loop
      vertex 46.5963 -34.5071 4.25
      vertex 44.6922 -38.088 -3.25
      vertex 44.6922 -38.088 4.25
    endloop
  endfacet
  facet normal 0 1 -0
    outer loop
      vertex 54.6922 -38.088 -3.25
      vertex 54.3078 -38.088 4.25
      vertex 54.6922 -38.088 4.25
    endloop
  endfacet
  facet normal 0 1 0
    outer loop
      vertex 54.3078 -38.088 4.25
      vertex 54.6922 -38.088 -3.25
      vertex 54.3078 -38.088 -3.25
    endloop
  endfacet
  facet normal 0.882945 0.469476 0
    outer loop
      vertex 54.3078 -38.088 4.25
      vertex 52.4037 -34.5071 -3.25
      vertex 52.4037 -34.5071 4.25
    endloop
  endfacet
  facet normal 0.882945 0.469476 0
    outer loop
      vertex 52.4037 -34.5071 -3.25
      vertex 54.3078 -38.088 4.25
      vertex 54.3078 -38.088 -3.25
    endloop
  endfacet
  facet normal 0 1 -0
    outer loop
      vertex 52.4037 -34.5071 -3.25
      vertex 51.5963 -34.5071 4.25
      vertex 52.4037 -34.5071 4.25
    endloop
  endfacet
  facet normal 0 1 0
    outer loop
      vertex 51.5963 -34.5071 4.25
      vertex 52.4037 -34.5071 -3.25
      vertex 51.5963 -34.5071 -3.25
    endloop
  endfacet
  facet normal -0.882945 0.469476 0
    outer loop
      vertex 49.6922 -38.088 -3.25
      vertex 51.5963 -34.5071 4.25
      vertex 51.5963 -34.5071 -3.25
    endloop
  endfacet
  facet normal -0.882945 0.469476 0
    outer loop
      vertex 51.5963 -34.5071 4.25
      vertex 49.6922 -38.088 -3.25
      vertex 49.6922 -38.088 4.25
    endloop
  endfacet
  facet normal 0 1 -0
    outer loop
      vertex 59.6922 -38.088 -3.25
      vertex 59.3078 -38.088 4.25
      vertex 59.6922 -38.088 4.25
    endloop
  endfacet
  facet normal 0 1 0
    outer loop
      vertex 59.3078 -38.088 4.25
      vertex 59.6922 -38.088 -3.25
      vertex 59.3078 -38.088 -3.25
    endloop
  endfacet
  facet normal 0.882945 0.469476 0
    outer loop
      vertex 59.3078 -38.088 4.25
      vertex 57.4037 -34.5071 -3.25
      vertex 57.4037 -34.5071 4.25
    endloop
  endfacet
  facet normal 0.882945 0.469476 0
    outer loop
      vertex 57.4037 -34.5071 -3.25
      vertex 59.3078 -38.088 4.25
      vertex 59.3078 -38.088 -3.25
    endloop
  endfacet
  facet normal 0 1 -0
    outer loop
      vertex 57.4037 -34.5071 -3.25
      vertex 56.5963 -34.5071 4.25
      vertex 57.4037 -34.5071 4.25
    endloop
  endfacet
  facet normal 0 1 0
    outer loop
      vertex 56.5963 -34.5071 4.25
      vertex 57.4037 -34.5071 -3.25
      vertex 56.5963 -34.5071 -3.25
    endloop
  endfacet
  facet normal -0.882945 0.469476 0
    outer loop
      vertex 54.6922 -38.088 -3.25
      vertex 56.5963 -34.5071 4.25
      vertex 56.5963 -34.5071 -3.25
    endloop
  endfacet
  facet normal -0.882945 0.469476 0
    outer loop
      vertex 56.5963 -34.5071 4.25
      vertex 54.6922 -38.088 -3.25
      vertex 54.6922 -38.088 4.25
    endloop
  endfacet
  facet normal 0 1 -0
    outer loop
      vertex 64.6922 -38.088 -3.25
      vertex 64.3078 -38.088 4.25
      vertex 64.6922 -38.088 4.25
    endloop
  endfacet
  facet normal 0 1 0
    outer loop
      vertex 64.3078 -38.088 4.25
      vertex 64.6922 -38.088 -3.25
      vertex 64.3078 -38.088 -3.25
    endloop
  endfacet
  facet normal 0.882945 0.469476 0
    outer loop
      vertex 64.3078 -38.088 4.25
      vertex 62.4037 -34.5071 -3.25
      vertex 62.4037 -34.5071 4.25
    endloop
  endfacet
  facet normal 0.882945 0.469476 0
    outer loop
      vertex 62.4037 -34.5071 -3.25
      vertex 64.3078 -38.088 4.25
      vertex 64.3078 -38.088 -3.25
    endloop
  endfacet
  facet normal 0 1 -0
    outer loop
      vertex 62.4037 -34.5071 -3.25
      vertex 61.5963 -34.5071 4.25
      vertex 62.4037 -34.5071 4.25
    endloop
  endfacet
  facet normal 0 1 0
    outer loop
      vertex 61.5963 -34.5071 4.25
      vertex 62.4037 -34.5071 -3.25
      vertex 61.5963 -34.5071 -3.25
    endloop
  endfacet
  facet normal -0.882945 0.469476 0
    outer loop
      vertex 59.6922 -38.088 -3.25
      vertex 61.5963 -34.5071 4.25
      vertex 61.5963 -34.5071 -3.25
    endloop
  endfacet
  facet normal -0.882945 0.469476 0
    outer loop
      vertex 61.5963 -34.5071 4.25
      vertex 59.6922 -38.088 -3.25
      vertex 59.6922 -38.088 4.25
    endloop
  endfacet
  facet normal 0 1 -0
    outer loop
      vertex 69.6922 -38.088 -3.25
      vertex 69.3078 -38.088 4.25
      vertex 69.6922 -38.088 4.25
    endloop
  endfacet
  facet normal 0 1 0
    outer loop
      vertex 69.3078 -38.088 4.25
      vertex 69.6922 -38.088 -3.25
      vertex 69.3078 -38.088 -3.25
    endloop
  endfacet
  facet normal 0.882945 0.469476 0
    outer loop
      vertex 69.3078 -38.088 4.25
      vertex 67.4037 -34.5071 -3.25
      vertex 67.4037 -34.5071 4.25
    endloop
  endfacet
  facet normal 0.882945 0.469476 0
    outer loop
      vertex 67.4037 -34.5071 -3.25
      vertex 69.3078 -38.088 4.25
      vertex 69.3078 -38.088 -3.25
    endloop
  endfacet
  facet normal 0 1 -0
    outer loop
      vertex 67.4037 -34.5071 -3.25
      vertex 66.5963 -34.5071 4.25
      vertex 67.4037 -34.5071 4.25
    endloop
  endfacet
  facet normal 0 1 0
    outer loop
      vertex 66.5963 -34.5071 4.25
      vertex 67.4037 -34.5071 -3.25
      vertex 66.5963 -34.5071 -3.25
    endloop
  endfacet
  facet normal -0.882945 0.469476 0
    outer loop
      vertex 64.6922 -38.088 -3.25
      vertex 66.5963 -34.5071 4.25
      vertex 66.5963 -34.5071 -3.25
    endloop
  endfacet
  facet normal -0.882945 0.469476 0
    outer loop
      vertex 66.5963 -34.5071 4.25
      vertex 64.6922 -38.088 -3.25
      vertex 64.6922 -38.088 4.25
    endloop
  endfacet
  facet normal 0 1 -0
    outer loop
      vertex 74.6922 -38.088 -3.25
      vertex 74.3078 -38.088 4.25
      vertex 74.6922 -38.088 4.25
    endloop
  endfacet
  facet normal 0 1 0
    outer loop
      vertex 74.3078 -38.088 4.25
      vertex 74.6922 -38.088 -3.25
      vertex 74.3078 -38.088 -3.25
    endloop
  endfacet
  facet normal 0.882945 0.469476 0
    outer loop
      vertex 74.3078 -38.088 4.25
      vertex 72.4037 -34.5071 -3.25
      vertex 72.4037 -34.5071 4.25
    endloop
  endfacet
  facet normal 0.882945 0.469476 0
    outer loop
      vertex 72.4037 -34.5071 -3.25
      vertex 74.3078 -38.088 4.25
      vertex 74.3078 -38.088 -3.25
    endloop
  endfacet
  facet normal 0 1 -0
    outer loop
      vertex 72.4037 -34.5071 -3.25
      vertex 71.5963 -34.5071 4.25
      vertex 72.4037 -34.5071 4.25
    endloop
  endfacet
  facet normal 0 1 0
    outer loop
      vertex 71.5963 -34.5071 4.25
      vertex 72.4037 -34.5071 -3.25
      vertex 71.5963 -34.5071 -3.25
    endloop
  endfacet
  facet normal -0.882945 0.469476 0
    outer loop
      vertex 69.6922 -38.088 -3.25
      vertex 71.5963 -34.5071 4.25
      vertex 71.5963 -34.5071 -3.25
    endloop
  endfacet
  facet normal -0.882945 0.469476 0
    outer loop
      vertex 71.5963 -34.5071 4.25
      vertex 69.6922 -38.088 -3.25
      vertex 69.6922 -38.088 4.25
    endloop
  endfacet
  facet normal 0 1 -0
    outer loop
      vertex 79.6922 -38.088 -3.25
      vertex 79.3078 -38.088 4.25
      vertex 79.6922 -38.088 4.25
    endloop
  endfacet
  facet normal 0 1 0
    outer loop
      vertex 79.3078 -38.088 4.25
      vertex 79.6922 -38.088 -3.25
      vertex 79.3078 -38.088 -3.25
    endloop
  endfacet
  facet normal 0.882945 0.469476 0
    outer loop
      vertex 79.3078 -38.088 4.25
      vertex 77.4037 -34.5071 -3.25
      vertex 77.4037 -34.5071 4.25
    endloop
  endfacet
  facet normal 0.882945 0.469476 0
    outer loop
      vertex 77.4037 -34.5071 -3.25
      vertex 79.3078 -38.088 4.25
      vertex 79.3078 -38.088 -3.25
    endloop
  endfacet
  facet normal 0 1 -0
    outer loop
      vertex 77.4037 -34.5071 -3.25
      vertex 76.5963 -34.5071 4.25
      vertex 77.4037 -34.5071 4.25
    endloop
  endfacet
  facet normal 0 1 0
    outer loop
      vertex 76.5963 -34.5071 4.25
      vertex 77.4037 -34.5071 -3.25
      vertex 76.5963 -34.5071 -3.25
    endloop
  endfacet
  facet normal -0.882945 0.469476 0
    outer loop
      vertex 74.6922 -38.088 -3.25
      vertex 76.5963 -34.5071 4.25
      vertex 76.5963 -34.5071 -3.25
    endloop
  endfacet
  facet normal -0.882945 0.469476 0
    outer loop
      vertex 76.5963 -34.5071 4.25
      vertex 74.6922 -38.088 -3.25
      vertex 74.6922 -38.088 4.25
    endloop
  endfacet
  facet normal 0 1 -0
    outer loop
      vertex 84.6922 -38.088 -3.25
      vertex 84.3078 -38.088 4.25
      vertex 84.6922 -38.088 4.25
    endloop
  endfacet
  facet normal 0 1 0
    outer loop
      vertex 84.3078 -38.088 4.25
      vertex 84.6922 -38.088 -3.25
      vertex 84.3078 -38.088 -3.25
    endloop
  endfacet
  facet normal 0.882945 0.469476 0
    outer loop
      vertex 84.3078 -38.088 4.25
      vertex 82.4037 -34.5071 -3.25
      vertex 82.4037 -34.5071 4.25
    endloop
  endfacet
  facet normal 0.882945 0.469476 0
    outer loop
      vertex 82.4037 -34.5071 -3.25
      vertex 84.3078 -38.088 4.25
      vertex 84.3078 -38.088 -3.25
    endloop
  endfacet
  facet normal 0 1 -0
    outer loop
      vertex 82.4037 -34.5071 -3.25
      vertex 81.5963 -34.5071 4.25
      vertex 82.4037 -34.5071 4.25
    endloop
  endfacet
  facet normal 0 1 0
    outer loop
      vertex 81.5963 -34.5071 4.25
      vertex 82.4037 -34.5071 -3.25
      vertex 81.5963 -34.5071 -3.25
    endloop
  endfacet
  facet normal -0.882945 0.469476 0
    outer loop
      vertex 79.6922 -38.088 -3.25
      vertex 81.5963 -34.5071 4.25
      vertex 81.5963 -34.5071 -3.25
    endloop
  endfacet
  facet normal -0.882945 0.469476 0
    outer loop
      vertex 81.5963 -34.5071 4.25
      vertex 79.6922 -38.088 -3.25
      vertex 79.6922 -38.088 4.25
    endloop
  endfacet
  facet normal 0 1 -0
    outer loop
      vertex 89.6922 -38.088 -3.25
      vertex 89.3078 -38.088 4.25
      vertex 89.6922 -38.088 4.25
    endloop
  endfacet
  facet normal 0 1 0
    outer loop
      vertex 89.3078 -38.088 4.25
      vertex 89.6922 -38.088 -3.25
      vertex 89.3078 -38.088 -3.25
    endloop
  endfacet
  facet normal 0.882945 0.469476 0
    outer loop
      vertex 89.3078 -38.088 4.25
      vertex 87.4037 -34.5071 -3.25
      vertex 87.4037 -34.5071 4.25
    endloop
  endfacet
  facet normal 0.882945 0.469476 0
    outer loop
      vertex 87.4037 -34.5071 -3.25
      vertex 89.3078 -38.088 4.25
      vertex 89.3078 -38.088 -3.25
    endloop
  endfacet
  facet normal 0 1 -0
    outer loop
      vertex 87.4037 -34.5071 -3.25
      vertex 86.5963 -34.5071 4.25
      vertex 87.4037 -34.5071 4.25
    endloop
  endfacet
  facet normal 0 1 0
    outer loop
      vertex 86.5963 -34.5071 4.25
      vertex 87.4037 -34.5071 -3.25
      vertex 86.5963 -34.5071 -3.25
    endloop
  endfacet
  facet normal -0.882945 0.469476 0
    outer loop
      vertex 84.6922 -38.088 -3.25
      vertex 86.5963 -34.5071 4.25
      vertex 86.5963 -34.5071 -3.25
    endloop
  endfacet
  facet normal -0.882945 0.469476 0
    outer loop
      vertex 86.5963 -34.5071 4.25
      vertex 84.6922 -38.088 -3.25
      vertex 84.6922 -38.088 4.25
    endloop
  endfacet
  facet normal 0 1 -0
    outer loop
      vertex 94.5 -38.088 -3.25
      vertex 94.3078 -38.088 4.25
      vertex 94.5 -38.088 4.25
    endloop
  endfacet
  facet normal 0 1 0
    outer loop
      vertex 94.3078 -38.088 4.25
      vertex 94.5 -38.088 -3.25
      vertex 94.3078 -38.088 -3.25
    endloop
  endfacet
  facet normal 0.882945 0.469476 0
    outer loop
      vertex 94.3078 -38.088 4.25
      vertex 92.4037 -34.5071 -3.25
      vertex 92.4037 -34.5071 4.25
    endloop
  endfacet
  facet normal 0.882945 0.469476 0
    outer loop
      vertex 92.4037 -34.5071 -3.25
      vertex 94.3078 -38.088 4.25
      vertex 94.3078 -38.088 -3.25
    endloop
  endfacet
  facet normal 0 1 -0
    outer loop
      vertex 92.4037 -34.5071 -3.25
      vertex 91.5963 -34.5071 4.25
      vertex 92.4037 -34.5071 4.25
    endloop
  endfacet
  facet normal 0 1 0
    outer loop
      vertex 91.5963 -34.5071 4.25
      vertex 92.4037 -34.5071 -3.25
      vertex 91.5963 -34.5071 -3.25
    endloop
  endfacet
  facet normal -0.882945 0.469476 0
    outer loop
      vertex 89.6922 -38.088 -3.25
      vertex 91.5963 -34.5071 4.25
      vertex 91.5963 -34.5071 -3.25
    endloop
  endfacet
  facet normal -0.882945 0.469476 0
    outer loop
      vertex 91.5963 -34.5071 4.25
      vertex 89.6922 -38.088 -3.25
      vertex 89.6922 -38.088 4.25
    endloop
  endfacet
  facet normal 1 0 0
    outer loop
      vertex 94.5 -38.088 4.25
      vertex 94.5 -44.507 4.25
      vertex 94.5 -38.088 -3.25
    endloop
  endfacet
  facet normal 1 -0 0
    outer loop
      vertex 94.5 -38.088 -3.25
      vertex 94.5 -32.507 -4.25
      vertex 94.5 -32.507 -3.25
    endloop
  endfacet
  facet normal 1 0 0
    outer loop
      vertex 94.5 -44.507 -3.25
      vertex 94.5 -38.088 -3.25
      vertex 94.5 -44.507 4.25
    endloop
  endfacet
  facet normal 1 0 0
    outer loop
      vertex 94.5 -44.507 -4.25
      vertex 94.5 -38.088 -3.25
      vertex 94.5 -44.507 -3.25
    endloop
  endfacet
  facet normal 1 0 0
    outer loop
      vertex 94.5 -38.088 -3.25
      vertex 94.5 -44.507 -4.25
      vertex 94.5 -32.507 -4.25
    endloop
  endfacet
  facet normal -0 0 1
    outer loop
      vertex 92.4037 -34.5071 -3.25
      vertex 94.5 -38.088 -3.25
      vertex 94.5 -32.507 -3.25
    endloop
  endfacet
  facet normal 0 0 1
    outer loop
      vertex 94.5 -38.088 -3.25
      vertex 92.4037 -34.5071 -3.25
      vertex 94.3078 -38.088 -3.25
    endloop
  endfacet
  facet normal 0 0 1
    outer loop
      vertex 94.5 -32.507 -3.25
      vertex 91.5963 -34.5071 -3.25
      vertex 92.4037 -34.5071 -3.25
    endloop
  endfacet
  facet normal 0 0 1
    outer loop
      vertex 91.5963 -34.5071 -3.25
      vertex 89.3078 -38.088 -3.25
      vertex 89.6922 -38.088 -3.25
    endloop
  endfacet
  facet normal 0 0 1
    outer loop
      vertex 91.5963 -34.5071 -3.25
      vertex 87.4037 -34.5071 -3.25
      vertex 89.3078 -38.088 -3.25
    endloop
  endfacet
  facet normal 0 0 1
    outer loop
      vertex 94.5 -32.507 -3.25
      vertex 87.4037 -34.5071 -3.25
      vertex 91.5963 -34.5071 -3.25
    endloop
  endfacet
  facet normal 0 0 1
    outer loop
      vertex 94.5 -32.507 -3.25
      vertex 86.5963 -34.5071 -3.25
      vertex 87.4037 -34.5071 -3.25
    endloop
  endfacet
  facet normal 0 0 1
    outer loop
      vertex 86.5963 -34.5071 -3.25
      vertex 84.3078 -38.088 -3.25
      vertex 84.6922 -38.088 -3.25
    endloop
  endfacet
  facet normal 0 0 1
    outer loop
      vertex 86.5963 -34.5071 -3.25
      vertex 82.4037 -34.5071 -3.25
      vertex 84.3078 -38.088 -3.25
    endloop
  endfacet
  facet normal 0 0 1
    outer loop
      vertex 94.5 -32.507 -3.25
      vertex 82.4037 -34.5071 -3.25
      vertex 86.5963 -34.5071 -3.25
    endloop
  endfacet
  facet normal 0 0 1
    outer loop
      vertex 94.5 -32.507 -3.25
      vertex 81.5963 -34.5071 -3.25
      vertex 82.4037 -34.5071 -3.25
    endloop
  endfacet
  facet normal 0 0 1
    outer loop
      vertex 81.5963 -34.5071 -3.25
      vertex 79.3078 -38.088 -3.25
      vertex 79.6922 -38.088 -3.25
    endloop
  endfacet
  facet normal 0 0 1
    outer loop
      vertex 81.5963 -34.5071 -3.25
      vertex 77.4037 -34.5071 -3.25
      vertex 79.3078 -38.088 -3.25
    endloop
  endfacet
  facet normal 0 0 1
    outer loop
      vertex 94.5 -32.507 -3.25
      vertex 77.4037 -34.5071 -3.25
      vertex 81.5963 -34.5071 -3.25
    endloop
  endfacet
  facet normal 0 0 1
    outer loop
      vertex 94.5 -32.507 -3.25
      vertex 76.5963 -34.5071 -3.25
      vertex 77.4037 -34.5071 -3.25
    endloop
  endfacet
  facet normal 0 0 1
    outer loop
      vertex 76.5963 -34.5071 -3.25
      vertex 74.3078 -38.088 -3.25
      vertex 74.6922 -38.088 -3.25
    endloop
  endfacet
  facet normal 0 0 1
    outer loop
      vertex 76.5963 -34.5071 -3.25
      vertex 72.4037 -34.5071 -3.25
      vertex 74.3078 -38.088 -3.25
    endloop
  endfacet
  facet normal 0 0 1
    outer loop
      vertex 94.5 -32.507 -3.25
      vertex 72.4037 -34.5071 -3.25
      vertex 76.5963 -34.5071 -3.25
    endloop
  endfacet
  facet normal 0 0 1
    outer loop
      vertex 94.5 -32.507 -3.25
      vertex 71.5963 -34.5071 -3.25
      vertex 72.4037 -34.5071 -3.25
    endloop
  endfacet
  facet normal 0 0 1
    outer loop
      vertex 71.5963 -34.5071 -3.25
      vertex 69.3078 -38.088 -3.25
      vertex 69.6922 -38.088 -3.25
    endloop
  endfacet
  facet normal 0 0 1
    outer loop
      vertex 71.5963 -34.5071 -3.25
      vertex 67.4037 -34.5071 -3.25
      vertex 69.3078 -38.088 -3.25
    endloop
  endfacet
  facet normal 0 0 1
    outer loop
      vertex 94.5 -32.507 -3.25
      vertex 67.4037 -34.5071 -3.25
      vertex 71.5963 -34.5071 -3.25
    endloop
  endfacet
  facet normal 0 0 1
    outer loop
      vertex 94.5 -32.507 -3.25
      vertex 66.5963 -34.5071 -3.25
      vertex 67.4037 -34.5071 -3.25
    endloop
  endfacet
  facet normal 0 0 1
    outer loop
      vertex 66.5963 -34.5071 -3.25
      vertex 64.3078 -38.088 -3.25
      vertex 64.6922 -38.088 -3.25
    endloop
  endfacet
  facet normal 0 0 1
    outer loop
      vertex 66.5963 -34.5071 -3.25
      vertex 62.4037 -34.5071 -3.25
      vertex 64.3078 -38.088 -3.25
    endloop
  endfacet
  facet normal 0 0 1
    outer loop
      vertex 94.5 -32.507 -3.25
      vertex 62.4037 -34.5071 -3.25
      vertex 66.5963 -34.5071 -3.25
    endloop
  endfacet
  facet normal 0 0 1
    outer loop
      vertex 94.5 -32.507 -3.25
      vertex 61.5963 -34.5071 -3.25
      vertex 62.4037 -34.5071 -3.25
    endloop
  endfacet
  facet normal 0 0 1
    outer loop
      vertex 61.5963 -34.5071 -3.25
      vertex 59.3078 -38.088 -3.25
      vertex 59.6922 -38.088 -3.25
    endloop
  endfacet
  facet normal 0 0 1
    outer loop
      vertex 61.5963 -34.5071 -3.25
      vertex 57.4037 -34.5071 -3.25
      vertex 59.3078 -38.088 -3.25
    endloop
  endfacet
  facet normal 0 0 1
    outer loop
      vertex 94.5 -32.507 -3.25
      vertex 57.4037 -34.5071 -3.25
      vertex 61.5963 -34.5071 -3.25
    endloop
  endfacet
  facet normal 0 0 1
    outer loop
      vertex 94.5 -32.507 -3.25
      vertex 56.5963 -34.5071 -3.25
      vertex 57.4037 -34.5071 -3.25
    endloop
  endfacet
  facet normal 0 0 1
    outer loop
      vertex 56.5963 -34.5071 -3.25
      vertex 54.3078 -38.088 -3.25
      vertex 54.6922 -38.088 -3.25
    endloop
  endfacet
  facet normal 0 0 1
    outer loop
      vertex 56.5963 -34.5071 -3.25
      vertex 52.4037 -34.5071 -3.25
      vertex 54.3078 -38.088 -3.25
    endloop
  endfacet
  facet normal 0 0 1
    outer loop
      vertex 94.5 -32.507 -3.25
      vertex 52.4037 -34.5071 -3.25
      vertex 56.5963 -34.5071 -3.25
    endloop
  endfacet
  facet normal 0 0 1
    outer loop
      vertex 94.5 -32.507 -3.25
      vertex 51.5963 -34.5071 -3.25
      vertex 52.4037 -34.5071 -3.25
    endloop
  endfacet
  facet normal 0 0 1
    outer loop
      vertex 51.5963 -34.5071 -3.25
      vertex 49.3078 -38.088 -3.25
      vertex 49.6922 -38.088 -3.25
    endloop
  endfacet
  facet normal 0 0 1
    outer loop
      vertex 51.5963 -34.5071 -3.25
      vertex 47.4037 -34.5071 -3.25
      vertex 49.3078 -38.088 -3.25
    endloop
  endfacet
  facet normal 0 0 1
    outer loop
      vertex 94.5 -32.507 -3.25
      vertex 47.4037 -34.5071 -3.25
      vertex 51.5963 -34.5071 -3.25
    endloop
  endfacet
  facet normal 0 0 1
    outer loop
      vertex 94.5 -32.507 -3.25
      vertex 46.5963 -34.5071 -3.25
      vertex 47.4037 -34.5071 -3.25
    endloop
  endfacet
  facet normal 0 0 1
    outer loop
      vertex 46.5963 -34.5071 -3.25
      vertex 44.3078 -38.088 -3.25
      vertex 44.6922 -38.088 -3.25
    endloop
  endfacet
  facet normal 0 0 1
    outer loop
      vertex 46.5963 -34.5071 -3.25
      vertex 42.4037 -34.5071 -3.25
      vertex 44.3078 -38.088 -3.25
    endloop
  endfacet
  facet normal 0 0 1
    outer loop
      vertex 94.5 -32.507 -3.25
      vertex 42.4037 -34.5071 -3.25
      vertex 46.5963 -34.5071 -3.25
    endloop
  endfacet
  facet normal 0 0 1
    outer loop
      vertex 94.5 -32.507 -3.25
      vertex 41.5963 -34.5071 -3.25
      vertex 42.4037 -34.5071 -3.25
    endloop
  endfacet
  facet normal 0 0 1
    outer loop
      vertex 41.5963 -34.5071 -3.25
      vertex 39.3078 -38.088 -3.25
      vertex 39.6922 -38.088 -3.25
    endloop
  endfacet
  facet normal 0 0 1
    outer loop
      vertex 41.5963 -34.5071 -3.25
      vertex 37.4037 -34.5071 -3.25
      vertex 39.3078 -38.088 -3.25
    endloop
  endfacet
  facet normal 0 0 1
    outer loop
      vertex 94.5 -32.507 -3.25
      vertex 37.4037 -34.5071 -3.25
      vertex 41.5963 -34.5071 -3.25
    endloop
  endfacet
  facet normal 0 0 1
    outer loop
      vertex 94.5 -32.507 -3.25
      vertex 36.5963 -34.5071 -3.25
      vertex 37.4037 -34.5071 -3.25
    endloop
  endfacet
  facet normal 0 0 1
    outer loop
      vertex 36.5963 -34.5071 -3.25
      vertex 34.3078 -38.088 -3.25
      vertex 34.6922 -38.088 -3.25
    endloop
  endfacet
  facet normal 0 0 1
    outer loop
      vertex 36.5963 -34.5071 -3.25
      vertex 32.4037 -34.5071 -3.25
      vertex 34.3078 -38.088 -3.25
    endloop
  endfacet
  facet normal -0 0 1
    outer loop
      vertex -10.5 -32.507 -3.25
      vertex 36.5963 -34.5071 -3.25
      vertex 94.5 -32.507 -3.25
    endloop
  endfacet
  facet normal 0 0 1
    outer loop
      vertex 36.5963 -34.5071 -3.25
      vertex -10.5 -32.507 -3.25
      vertex 32.4037 -34.5071 -3.25
    endloop
  endfacet
  facet normal 0 0 1
    outer loop
      vertex 31.5963 -34.5071 -3.25
      vertex 29.3078 -38.088 -3.25
      vertex 29.6922 -38.088 -3.25
    endloop
  endfacet
  facet normal 0 0 1
    outer loop
      vertex 31.5963 -34.5071 -3.25
      vertex 27.4037 -34.5071 -3.25
      vertex 29.3078 -38.088 -3.25
    endloop
  endfacet
  facet normal 0 0 1
    outer loop
      vertex 32.4037 -34.5071 -3.25
      vertex -10.5 -32.507 -3.25
      vertex 31.5963 -34.5071 -3.25
    endloop
  endfacet
  facet normal 0 0 1
    outer loop
      vertex 31.5963 -34.5071 -3.25
      vertex -10.5 -32.507 -3.25
      vertex 27.4037 -34.5071 -3.25
    endloop
  endfacet
  facet normal 0 0 1
    outer loop
      vertex 26.5963 -34.5071 -3.25
      vertex 24.3078 -38.088 -3.25
      vertex 24.6922 -38.088 -3.25
    endloop
  endfacet
  facet normal 0 0 1
    outer loop
      vertex 26.5963 -34.5071 -3.25
      vertex 22.4037 -34.5071 -3.25
      vertex 24.3078 -38.088 -3.25
    endloop
  endfacet
  facet normal 0 0 1
    outer loop
      vertex 27.4037 -34.5071 -3.25
      vertex -10.5 -32.507 -3.25
      vertex 26.5963 -34.5071 -3.25
    endloop
  endfacet
  facet normal 0 0 1
    outer loop
      vertex 26.5963 -34.5071 -3.25
      vertex -10.5 -32.507 -3.25
      vertex 22.4037 -34.5071 -3.25
    endloop
  endfacet
  facet normal 0 0 1
    outer loop
      vertex 21.5963 -34.5071 -3.25
      vertex 19.3078 -38.088 -3.25
      vertex 19.6922 -38.088 -3.25
    endloop
  endfacet
  facet normal 0 0 1
    outer loop
      vertex 21.5963 -34.5071 -3.25
      vertex 17.4037 -34.5071 -3.25
      vertex 19.3078 -38.088 -3.25
    endloop
  endfacet
  facet normal 0 0 1
    outer loop
      vertex 22.4037 -34.5071 -3.25
      vertex -10.5 -32.507 -3.25
      vertex 21.5963 -34.5071 -3.25
    endloop
  endfacet
  facet normal 0 0 1
    outer loop
      vertex 21.5963 -34.5071 -3.25
      vertex -10.5 -32.507 -3.25
      vertex 17.4037 -34.5071 -3.25
    endloop
  endfacet
  facet normal 0 0 1
    outer loop
      vertex 16.5963 -34.5071 -3.25
      vertex 14.3078 -38.088 -3.25
      vertex 14.6922 -38.088 -3.25
    endloop
  endfacet
  facet normal 0 0 1
    outer loop
      vertex 16.5963 -34.5071 -3.25
      vertex 12.4037 -34.5071 -3.25
      vertex 14.3078 -38.088 -3.25
    endloop
  endfacet
  facet normal 0 0 1
    outer loop
      vertex 17.4037 -34.5071 -3.25
      vertex -10.5 -32.507 -3.25
      vertex 16.5963 -34.5071 -3.25
    endloop
  endfacet
  facet normal 0 0 1
    outer loop
      vertex 16.5963 -34.5071 -3.25
      vertex -10.5 -32.507 -3.25
      vertex 12.4037 -34.5071 -3.25
    endloop
  endfacet
  facet normal 0 0 1
    outer loop
      vertex 11.5963 -34.5071 -3.25
      vertex 9.3078 -38.088 -3.25
      vertex 9.6922 -38.088 -3.25
    endloop
  endfacet
  facet normal 0 0 1
    outer loop
      vertex 11.5963 -34.5071 -3.25
      vertex 7.40375 -34.5071 -3.25
      vertex 9.3078 -38.088 -3.25
    endloop
  endfacet
  facet normal 0 0 1
    outer loop
      vertex 12.4037 -34.5071 -3.25
      vertex -10.5 -32.507 -3.25
      vertex 11.5963 -34.5071 -3.25
    endloop
  endfacet
  facet normal 0 0 1
    outer loop
      vertex 11.5963 -34.5071 -3.25
      vertex -10.5 -32.507 -3.25
      vertex 7.40375 -34.5071 -3.25
    endloop
  endfacet
  facet normal 0 0 1
    outer loop
      vertex 6.59625 -34.5071 -3.25
      vertex 4.3078 -38.088 -3.25
      vertex 4.6922 -38.088 -3.25
    endloop
  endfacet
  facet normal 0 0 1
    outer loop
      vertex 6.59625 -34.5071 -3.25
      vertex 2.40375 -34.5071 -3.25
      vertex 4.3078 -38.088 -3.25
    endloop
  endfacet
  facet normal 0 0 1
    outer loop
      vertex 7.40375 -34.5071 -3.25
      vertex -10.5 -32.507 -3.25
      vertex 6.59625 -34.5071 -3.25
    endloop
  endfacet
  facet normal 0 0 1
    outer loop
      vertex 6.59625 -34.5071 -3.25
      vertex -10.5 -32.507 -3.25
      vertex 2.40375 -34.5071 -3.25
    endloop
  endfacet
  facet normal 0 0 1
    outer loop
      vertex 1.59625 -34.5071 -3.25
      vertex -0.6922 -38.088 -3.25
      vertex -0.3078 -38.088 -3.25
    endloop
  endfacet
  facet normal 0 0 1
    outer loop
      vertex 1.59625 -34.5071 -3.25
      vertex -2.59625 -34.5071 -3.25
      vertex -0.6922 -38.088 -3.25
    endloop
  endfacet
  facet normal 0 0 1
    outer loop
      vertex 2.40375 -34.5071 -3.25
      vertex -10.5 -32.507 -3.25
      vertex 1.59625 -34.5071 -3.25
    endloop
  endfacet
  facet normal 0 0 1
    outer loop
      vertex 1.59625 -34.5071 -3.25
      vertex -10.5 -32.507 -3.25
      vertex -2.59625 -34.5071 -3.25
    endloop
  endfacet
  facet normal 0 0 1
    outer loop
      vertex -3.40375 -34.5071 -3.25
      vertex -5.6922 -38.088 -3.25
      vertex -5.3078 -38.088 -3.25
    endloop
  endfacet
  facet normal 0 0 1
    outer loop
      vertex -3.40375 -34.5071 -3.25
      vertex -7.59625 -34.5071 -3.25
      vertex -5.6922 -38.088 -3.25
    endloop
  endfacet
  facet normal 0 0 1
    outer loop
      vertex -2.59625 -34.5071 -3.25
      vertex -10.5 -32.507 -3.25
      vertex -3.40375 -34.5071 -3.25
    endloop
  endfacet
  facet normal 0 0 1
    outer loop
      vertex -3.40375 -34.5071 -3.25
      vertex -10.5 -32.507 -3.25
      vertex -7.59625 -34.5071 -3.25
    endloop
  endfacet
  facet normal 0 0 1
    outer loop
      vertex -7.59625 -34.5071 -3.25
      vertex -10.5 -32.507 -3.25
      vertex -8.40375 -34.5071 -3.25
    endloop
  endfacet
  facet normal 0 0 1
    outer loop
      vertex -10.5 -38.088 -3.25
      vertex -8.40375 -34.5071 -3.25
      vertex -10.5 -32.507 -3.25
    endloop
  endfacet
  facet normal 0 0 1
    outer loop
      vertex -8.40375 -34.5071 -3.25
      vertex -10.5 -38.088 -3.25
      vertex -10.3078 -38.088 -3.25
    endloop
  endfacet
  facet normal 0 1 -0
    outer loop
      vertex 94.5 -32.507 -4.25
      vertex -10.5 -32.507 -3.25
      vertex 94.5 -32.507 -3.25
    endloop
  endfacet
  facet normal 0 1 0
    outer loop
      vertex -10.5 -32.507 -3.25
      vertex 94.5 -32.507 -4.25
      vertex -10.5 -32.507 -4.25
    endloop
  endfacet
  facet normal 0 -1 0
    outer loop
      vertex -10.5 -44.507 -4.25
      vertex 94.5 -44.507 -3.25
      vertex -10.5 -44.507 -3.25
    endloop
  endfacet
  facet normal 0 -1 -0
    outer loop
      vertex 94.5 -44.507 -3.25
      vertex -10.5 -44.507 -4.25
      vertex 94.5 -44.507 -4.25
    endloop
  endfacet
endsolid OpenSCAD_Model
