solid PARTassembly
   facet normal 0.0000 0.0000 -1.0000
      outer loop
         vertex -6.0000 -8.0000 -390.0000
         vertex -3.0000 -8.0000 -390.0000
         vertex -3.0000 -10.0000 -390.0000
      endloop
   endfacet
   facet normal 0.0000 0.0000 -1.0000
      outer loop
         vertex -6.0000 -8.0000 -390.0000
         vertex -3.0000 -10.0000 -390.0000
         vertex -9.0000 -10.0000 -390.0000
      endloop
   endfacet
   facet normal 0.0000 0.0000 -1.0000
      outer loop
         vertex -6.0000 -8.0000 -390.0000
         vertex -9.0000 -10.0000 -390.0000
         vertex -8.0000 -6.0000 -390.0000
      endloop
   endfacet
   facet normal 0.0000 0.0000 -1.0000
      outer loop
         vertex -6.0000 -8.0000 -390.0000
         vertex -8.0000 -6.0000 -390.0000
         vertex -7.0607 -6.0000 -390.0000
      endloop
   endfacet
   facet normal 0.0000 0.0000 -1.0000
      outer loop
         vertex -6.0000 -8.0000 -390.0000
         vertex -7.0607 -6.0000 -390.0000
         vertex -6.0000 -7.0607 -390.0000
      endloop
   endfacet
   facet normal 0.0000 0.0000 -1.0000
      outer loop
         vertex -8.0000 -3.0000 -390.0000
         vertex -8.0000 -6.0000 -390.0000
         vertex -9.0000 -10.0000 -390.0000
      endloop
   endfacet
   facet normal 0.0000 0.0000 -1.0000
      outer loop
         vertex -8.0000 -3.0000 -390.0000
         vertex -9.0000 -10.0000 -390.0000
         vertex -9.5000 -9.8660 -390.0000
      endloop
   endfacet
   facet normal 0.0000 0.0000 -1.0000
      outer loop
         vertex -8.0000 -3.0000 -390.0000
         vertex -9.5000 -9.8660 -390.0000
         vertex -9.8660 -9.5000 -390.0000
      endloop
   endfacet
   facet normal 0.0000 0.0000 -1.0000
      outer loop
         vertex -8.0000 -3.0000 -390.0000
         vertex -9.8660 -9.5000 -390.0000
         vertex -10.0000 -9.0000 -390.0000
      endloop
   endfacet
   facet normal 0.0000 0.0000 -1.0000
      outer loop
         vertex -8.0000 -3.0000 -390.0000
         vertex -10.0000 -9.0000 -390.0000
         vertex -10.0000 -3.0000 -390.0000
      endloop
   endfacet
   facet normal 0.0000 0.0000 -1.0000
      outer loop
         vertex -9.8660 9.5000 -390.0000
         vertex -9.5000 9.8660 -390.0000
         vertex -8.0000 3.0000 -390.0000
      endloop
   endfacet
   facet normal 0.0000 0.0000 -1.0000
      outer loop
         vertex -8.0000 3.0000 -390.0000
         vertex -9.5000 9.8660 -390.0000
         vertex -9.0000 10.0000 -390.0000
      endloop
   endfacet
   facet normal 0.0000 0.0000 -1.0000
      outer loop
         vertex -8.0000 3.0000 -390.0000
         vertex -9.0000 10.0000 -390.0000
         vertex -8.0000 6.0000 -390.0000
      endloop
   endfacet
   facet normal 0.0000 0.0000 -1.0000
      outer loop
         vertex -8.0000 6.0000 -390.0000
         vertex -9.0000 10.0000 -390.0000
         vertex -6.0000 8.0000 -390.0000
      endloop
   endfacet
   facet normal 0.0000 0.0000 -1.0000
      outer loop
         vertex -8.0000 6.0000 -390.0000
         vertex -6.0000 8.0000 -390.0000
         vertex -7.0607 6.0000 -390.0000
      endloop
   endfacet
   facet normal 0.0000 0.0000 -1.0000
      outer loop
         vertex -7.0607 6.0000 -390.0000
         vertex -6.0000 8.0000 -390.0000
         vertex -6.0000 7.0607 -390.0000
      endloop
   endfacet
   facet normal 0.0000 0.0000 -1.0000
      outer loop
         vertex -7.0607 6.0000 -390.0000
         vertex -6.0000 7.0607 -390.0000
         vertex -4.0000 2.9393 -390.0000
      endloop
   endfacet
   facet normal 0.0000 0.0000 -1.0000
      outer loop
         vertex -4.0000 2.9393 -390.0000
         vertex -6.0000 7.0607 -390.0000
         vertex -2.9393 4.0000 -390.0000
      endloop
   endfacet
   facet normal 0.0000 0.0000 -1.0000
      outer loop
         vertex -4.0000 2.9393 -390.0000
         vertex -2.9393 4.0000 -390.0000
         vertex -4.0000 0.5196 -390.0000
      endloop
   endfacet
   facet normal 0.0000 0.0000 -1.0000
      outer loop
         vertex -4.0000 0.5196 -390.0000
         vertex -2.9393 4.0000 -390.0000
         vertex -3.7000 0.0000 -390.0000
      endloop
   endfacet
   facet normal 0.0000 0.0000 -1.0000
      outer loop
         vertex -2.1651 1.2500 -390.0000
         vertex -2.5000 0.0000 -390.0000
         vertex -2.9393 4.0000 -390.0000
      endloop
   endfacet
   facet normal 0.0000 0.0000 -1.0000
      outer loop
         vertex -2.9393 4.0000 -390.0000
         vertex -2.5000 0.0000 -390.0000
         vertex -2.9393 -4.0000 -390.0000
      endloop
   endfacet
   facet normal 0.0000 0.0000 -1.0000
      outer loop
         vertex -2.9393 4.0000 -390.0000
         vertex -2.9393 -4.0000 -390.0000
         vertex -3.7000 0.0000 -390.0000
      endloop
   endfacet
   facet normal 0.0000 0.0000 -1.0000
      outer loop
         vertex -3.7000 0.0000 -390.0000
         vertex -2.9393 -4.0000 -390.0000
         vertex -4.0000 -2.9393 -390.0000
      endloop
   endfacet
   facet normal 0.0000 0.0000 -1.0000
      outer loop
         vertex -3.7000 0.0000 -390.0000
         vertex -4.0000 -2.9393 -390.0000
         vertex -4.0000 -0.5196 -390.0000
      endloop
   endfacet
   facet normal 0.0000 0.0000 -1.0000
      outer loop
         vertex 9.0000 -10.0000 -390.0000
         vertex 3.0000 -10.0000 -390.0000
         vertex 6.0000 -8.0000 -390.0000
      endloop
   endfacet
   facet normal 0.0000 0.0000 -1.0000
      outer loop
         vertex 9.0000 -10.0000 -390.0000
         vertex 6.0000 -8.0000 -390.0000
         vertex 7.0607 -6.0000 -390.0000
      endloop
   endfacet
   facet normal 0.0000 0.0000 -1.0000
      outer loop
         vertex 9.0000 -10.0000 -390.0000
         vertex 7.0607 -6.0000 -390.0000
         vertex 8.0000 -6.0000 -390.0000
      endloop
   endfacet
   facet normal 0.0000 0.0000 -1.0000
      outer loop
         vertex 9.0000 -10.0000 -390.0000
         vertex 8.0000 -6.0000 -390.0000
         vertex 10.0000 -3.0000 -390.0000
      endloop
   endfacet
   facet normal 0.0000 0.0000 -1.0000
      outer loop
         vertex 9.0000 -10.0000 -390.0000
         vertex 10.0000 -3.0000 -390.0000
         vertex 9.5000 -9.8660 -390.0000
      endloop
   endfacet
   facet normal 0.0000 0.0000 -1.0000
      outer loop
         vertex 9.8660 -9.5000 -390.0000
         vertex 9.5000 -9.8660 -390.0000
         vertex 10.0000 -3.0000 -390.0000
      endloop
   endfacet
   facet normal 0.0000 0.0000 -1.0000
      outer loop
         vertex 9.8660 -9.5000 -390.0000
         vertex 10.0000 -3.0000 -390.0000
         vertex 10.0000 -9.0000 -390.0000
      endloop
   endfacet
   facet normal 0.0000 0.0000 -1.0000
      outer loop
         vertex 4.0000 2.9393 -390.0000
         vertex 3.7000 -0.0000 -390.0000
         vertex 2.9393 -4.0000 -390.0000
      endloop
   endfacet
   facet normal 0.0000 0.0000 -1.0000
      outer loop
         vertex 2.9393 -4.0000 -390.0000
         vertex 3.7000 -0.0000 -390.0000
         vertex 4.0000 -2.9393 -390.0000
      endloop
   endfacet
   facet normal 0.0000 0.0000 -1.0000
      outer loop
         vertex 2.9393 -4.0000 -390.0000
         vertex 4.0000 -2.9393 -390.0000
         vertex 6.0000 -7.0607 -390.0000
      endloop
   endfacet
   facet normal 0.0000 0.0000 -1.0000
      outer loop
         vertex 6.0000 -7.0607 -390.0000
         vertex 4.0000 -2.9393 -390.0000
         vertex 7.0607 -6.0000 -390.0000
      endloop
   endfacet
   facet normal 0.0000 0.0000 -1.0000
      outer loop
         vertex 6.0000 -7.0607 -390.0000
         vertex 7.0607 -6.0000 -390.0000
         vertex 6.0000 -8.0000 -390.0000
      endloop
   endfacet
   facet normal 0.0000 0.0000 -1.0000
      outer loop
         vertex 8.0000 3.0000 -390.0000
         vertex 8.0000 6.0000 -390.0000
         vertex 9.0000 10.0000 -390.0000
      endloop
   endfacet
   facet normal 0.0000 0.0000 -1.0000
      outer loop
         vertex 9.0000 10.0000 -390.0000
         vertex 8.0000 6.0000 -390.0000
         vertex 7.0607 6.0000 -390.0000
      endloop
   endfacet
   facet normal 0.0000 0.0000 -1.0000
      outer loop
         vertex 9.0000 10.0000 -390.0000
         vertex 7.0607 6.0000 -390.0000
         vertex 6.0000 7.0607 -390.0000
      endloop
   endfacet
   facet normal 0.0000 0.0000 -1.0000
      outer loop
         vertex 6.0000 7.0607 -390.0000
         vertex 7.0607 6.0000 -390.0000
         vertex 4.0000 2.9393 -390.0000
      endloop
   endfacet
   facet normal 0.0000 0.0000 -1.0000
      outer loop
         vertex 6.0000 7.0607 -390.0000
         vertex 4.0000 2.9393 -390.0000
         vertex 2.9393 4.0000 -390.0000
      endloop
   endfacet
   facet normal 0.0000 0.0000 -1.0000
      outer loop
         vertex 2.9393 4.0000 -390.0000
         vertex 4.0000 2.9393 -390.0000
         vertex 2.9393 -4.0000 -390.0000
      endloop
   endfacet
   facet normal 0.0000 0.0000 -1.0000
      outer loop
         vertex 2.9393 4.0000 -390.0000
         vertex 2.9393 -4.0000 -390.0000
         vertex 2.5000 -0.0000 -390.0000
      endloop
   endfacet
   facet normal 0.0000 0.0000 -1.0000
      outer loop
         vertex 2.5000 -0.0000 -390.0000
         vertex 2.9393 -4.0000 -390.0000
         vertex 2.1651 -1.2500 -390.0000
      endloop
   endfacet
   facet normal 0.0000 0.0000 -1.0000
      outer loop
         vertex 2.1651 -1.2500 -390.0000
         vertex 2.9393 -4.0000 -390.0000
         vertex 1.2500 -2.1651 -390.0000
      endloop
   endfacet
   facet normal 0.0000 0.0000 -1.0000
      outer loop
         vertex 1.2500 -2.1651 -390.0000
         vertex 2.9393 -4.0000 -390.0000
         vertex 0.5196 -4.0000 -390.0000
      endloop
   endfacet
   facet normal 0.0000 0.0000 -1.0000
      outer loop
         vertex 1.2500 -2.1651 -390.0000
         vertex 0.5196 -4.0000 -390.0000
         vertex -0.0000 -2.5000 -390.0000
      endloop
   endfacet
   facet normal 0.0000 0.0000 -1.0000
      outer loop
         vertex -0.0000 -2.5000 -390.0000
         vertex 0.5196 -4.0000 -390.0000
         vertex -0.0000 -3.7000 -390.0000
      endloop
   endfacet
   facet normal 0.0000 0.0000 -1.0000
      outer loop
         vertex -0.0000 -2.5000 -390.0000
         vertex -0.0000 -3.7000 -390.0000
         vertex -0.5196 -4.0000 -390.0000
      endloop
   endfacet
   facet normal 0.0000 0.0000 -1.0000
      outer loop
         vertex -0.5196 -4.0000 -390.0000
         vertex -2.9393 -4.0000 -390.0000
         vertex -2.1651 -1.2500 -390.0000
      endloop
   endfacet
   facet normal 0.0000 0.0000 -1.0000
      outer loop
         vertex -0.5196 -4.0000 -390.0000
         vertex -2.1651 -1.2500 -390.0000
         vertex -1.2500 -2.1651 -390.0000
      endloop
   endfacet
   facet normal 0.0000 0.0000 -1.0000
      outer loop
         vertex -0.5196 -4.0000 -390.0000
         vertex -1.2500 -2.1651 -390.0000
         vertex -0.0000 -2.5000 -390.0000
      endloop
   endfacet
   facet normal 0.0000 0.0000 -1.0000
      outer loop
         vertex 10.0000 3.0000 -390.0000
         vertex 8.0000 3.0000 -390.0000
         vertex 9.0000 10.0000 -390.0000
      endloop
   endfacet
   facet normal 0.0000 0.0000 -1.0000
      outer loop
         vertex 10.0000 3.0000 -390.0000
         vertex 9.0000 10.0000 -390.0000
         vertex 9.5000 9.8660 -390.0000
      endloop
   endfacet
   facet normal 0.0000 0.0000 -1.0000
      outer loop
         vertex 10.0000 3.0000 -390.0000
         vertex 9.5000 9.8660 -390.0000
         vertex 9.8660 9.5000 -390.0000
      endloop
   endfacet
   facet normal 0.0000 0.0000 -1.0000
      outer loop
         vertex 10.0000 3.0000 -390.0000
         vertex 9.8660 9.5000 -390.0000
         vertex 10.0000 9.0000 -390.0000
      endloop
   endfacet
   facet normal 0.0000 0.0000 -1.0000
      outer loop
         vertex 9.0000 10.0000 -390.0000
         vertex 6.0000 7.0607 -390.0000
         vertex 6.0000 8.0000 -390.0000
      endloop
   endfacet
   facet normal 0.0000 0.0000 -1.0000
      outer loop
         vertex 9.0000 10.0000 -390.0000
         vertex 6.0000 8.0000 -390.0000
         vertex 3.0000 8.0000 -390.0000
      endloop
   endfacet
   facet normal 0.0000 0.0000 -1.0000
      outer loop
         vertex 9.0000 10.0000 -390.0000
         vertex 3.0000 8.0000 -390.0000
         vertex 3.0000 10.0000 -390.0000
      endloop
   endfacet
   facet normal 0.0000 0.0000 -1.0000
      outer loop
         vertex -6.0000 8.0000 -390.0000
         vertex -9.0000 10.0000 -390.0000
         vertex -3.0000 10.0000 -390.0000
      endloop
   endfacet
   facet normal 0.0000 0.0000 -1.0000
      outer loop
         vertex -6.0000 8.0000 -390.0000
         vertex -3.0000 10.0000 -390.0000
         vertex -3.0000 8.0000 -390.0000
      endloop
   endfacet
   facet normal 0.0000 0.0000 -1.0000
      outer loop
         vertex -10.0000 3.0000 -390.0000
         vertex -10.0000 9.0000 -390.0000
         vertex -9.8660 9.5000 -390.0000
      endloop
   endfacet
   facet normal 0.0000 0.0000 -1.0000
      outer loop
         vertex -10.0000 3.0000 -390.0000
         vertex -9.8660 9.5000 -390.0000
         vertex -8.0000 3.0000 -390.0000
      endloop
   endfacet
   facet normal 0.0000 0.0000 -1.0000
      outer loop
         vertex 0.0000 3.7000 -390.0000
         vertex 0.5196 4.0000 -390.0000
         vertex 1.2500 2.1651 -390.0000
      endloop
   endfacet
   facet normal 0.0000 0.0000 -1.0000
      outer loop
         vertex 1.2500 2.1651 -390.0000
         vertex 0.5196 4.0000 -390.0000
         vertex 2.9393 4.0000 -390.0000
      endloop
   endfacet
   facet normal 0.0000 0.0000 -1.0000
      outer loop
         vertex 1.2500 2.1651 -390.0000
         vertex 2.9393 4.0000 -390.0000
         vertex 2.1651 1.2500 -390.0000
      endloop
   endfacet
   facet normal 0.0000 0.0000 -1.0000
      outer loop
         vertex 2.1651 1.2500 -390.0000
         vertex 2.9393 4.0000 -390.0000
         vertex 2.5000 -0.0000 -390.0000
      endloop
   endfacet
   facet normal 0.0000 0.0000 -1.0000
      outer loop
         vertex 0.0000 2.5000 -390.0000
         vertex -1.2500 2.1651 -390.0000
         vertex -0.5196 4.0000 -390.0000
      endloop
   endfacet
   facet normal 0.0000 0.0000 -1.0000
      outer loop
         vertex 0.0000 2.5000 -390.0000
         vertex -0.5196 4.0000 -390.0000
         vertex 0.0000 3.7000 -390.0000
      endloop
   endfacet
   facet normal 0.0000 0.0000 -1.0000
      outer loop
         vertex 0.0000 2.5000 -390.0000
         vertex 0.0000 3.7000 -390.0000
         vertex 1.2500 2.1651 -390.0000
      endloop
   endfacet
   facet normal 0.0000 0.0000 -1.0000
      outer loop
         vertex -2.1651 1.2500 -390.0000
         vertex -2.9393 4.0000 -390.0000
         vertex -0.5196 4.0000 -390.0000
      endloop
   endfacet
   facet normal 0.0000 0.0000 -1.0000
      outer loop
         vertex -2.1651 1.2500 -390.0000
         vertex -0.5196 4.0000 -390.0000
         vertex -1.2500 2.1651 -390.0000
      endloop
   endfacet
   facet normal 0.0000 0.0000 -1.0000
      outer loop
         vertex -6.0000 -7.0607 -390.0000
         vertex -7.0607 -6.0000 -390.0000
         vertex -4.0000 -2.9393 -390.0000
      endloop
   endfacet
   facet normal 0.0000 0.0000 -1.0000
      outer loop
         vertex -6.0000 -7.0607 -390.0000
         vertex -4.0000 -2.9393 -390.0000
         vertex -2.9393 -4.0000 -390.0000
      endloop
   endfacet
   facet normal 0.0000 0.0000 -1.0000
      outer loop
         vertex -2.1651 -1.2500 -390.0000
         vertex -2.9393 -4.0000 -390.0000
         vertex -2.5000 0.0000 -390.0000
      endloop
   endfacet
   facet normal 0.0000 0.0000 -1.0000
      outer loop
         vertex 4.0000 0.5196 -390.0000
         vertex 3.7000 -0.0000 -390.0000
         vertex 4.0000 2.9393 -390.0000
      endloop
   endfacet
   facet normal 0.0000 0.0000 -1.0000
      outer loop
         vertex 4.0000 -2.9393 -390.0000
         vertex 3.7000 -0.0000 -390.0000
         vertex 4.0000 -0.5196 -390.0000
      endloop
   endfacet
   facet normal 0.0000 0.0000 -1.0000
      outer loop
         vertex 10.0000 -3.0000 -390.0000
         vertex 8.0000 -6.0000 -390.0000
         vertex 8.0000 -3.0000 -390.0000
      endloop
   endfacet
   facet normal 0.0000 0.0000 -1.0000
      outer loop
         vertex 6.0000 -8.0000 -390.0000
         vertex 3.0000 -10.0000 -390.0000
         vertex 3.0000 -8.0000 -390.0000
      endloop
   endfacet
   facet normal 0.0000 0.0000 1.0000
      outer loop
         vertex -6.0000 8.0000 0.0000
         vertex -3.0000 8.0000 0.0000
         vertex -3.0000 10.0000 0.0000
      endloop
   endfacet
   facet normal 0.0000 0.0000 1.0000
      outer loop
         vertex -6.0000 8.0000 0.0000
         vertex -3.0000 10.0000 0.0000
         vertex -9.0000 10.0000 0.0000
      endloop
   endfacet
   facet normal 0.0000 0.0000 1.0000
      outer loop
         vertex -6.0000 8.0000 0.0000
         vertex -9.0000 10.0000 0.0000
         vertex -8.0000 6.0000 0.0000
      endloop
   endfacet
   facet normal 0.0000 0.0000 1.0000
      outer loop
         vertex -6.0000 8.0000 0.0000
         vertex -8.0000 6.0000 0.0000
         vertex -7.0607 6.0000 0.0000
      endloop
   endfacet
   facet normal 0.0000 0.0000 1.0000
      outer loop
         vertex -6.0000 8.0000 0.0000
         vertex -7.0607 6.0000 0.0000
         vertex -6.0000 7.0607 0.0000
      endloop
   endfacet
   facet normal 0.0000 0.0000 1.0000
      outer loop
         vertex -8.0000 3.0000 0.0000
         vertex -8.0000 6.0000 0.0000
         vertex -9.0000 10.0000 0.0000
      endloop
   endfacet
   facet normal 0.0000 0.0000 1.0000
      outer loop
         vertex -8.0000 3.0000 0.0000
         vertex -9.0000 10.0000 0.0000
         vertex -9.5000 9.8660 0.0000
      endloop
   endfacet
   facet normal 0.0000 0.0000 1.0000
      outer loop
         vertex -8.0000 3.0000 0.0000
         vertex -9.5000 9.8660 0.0000
         vertex -9.8660 9.5000 0.0000
      endloop
   endfacet
   facet normal 0.0000 0.0000 1.0000
      outer loop
         vertex -8.0000 3.0000 0.0000
         vertex -9.8660 9.5000 0.0000
         vertex -10.0000 9.0000 0.0000
      endloop
   endfacet
   facet normal 0.0000 0.0000 1.0000
      outer loop
         vertex -8.0000 3.0000 0.0000
         vertex -10.0000 9.0000 0.0000
         vertex -10.0000 3.0000 0.0000
      endloop
   endfacet
   facet normal 0.0000 0.0000 1.0000
      outer loop
         vertex -9.8660 -9.5000 0.0000
         vertex -9.5000 -9.8660 0.0000
         vertex -8.0000 -3.0000 0.0000
      endloop
   endfacet
   facet normal 0.0000 0.0000 1.0000
      outer loop
         vertex -8.0000 -3.0000 0.0000
         vertex -9.5000 -9.8660 0.0000
         vertex -9.0000 -10.0000 0.0000
      endloop
   endfacet
   facet normal 0.0000 0.0000 1.0000
      outer loop
         vertex -8.0000 -3.0000 0.0000
         vertex -9.0000 -10.0000 0.0000
         vertex -8.0000 -6.0000 0.0000
      endloop
   endfacet
   facet normal 0.0000 0.0000 1.0000
      outer loop
         vertex -8.0000 -6.0000 0.0000
         vertex -9.0000 -10.0000 0.0000
         vertex -6.0000 -8.0000 0.0000
      endloop
   endfacet
   facet normal 0.0000 0.0000 1.0000
      outer loop
         vertex -8.0000 -6.0000 0.0000
         vertex -6.0000 -8.0000 0.0000
         vertex -7.0607 -6.0000 0.0000
      endloop
   endfacet
   facet normal 0.0000 0.0000 1.0000
      outer loop
         vertex -7.0607 -6.0000 0.0000
         vertex -6.0000 -8.0000 0.0000
         vertex -6.0000 -7.0607 0.0000
      endloop
   endfacet
   facet normal 0.0000 0.0000 1.0000
      outer loop
         vertex -7.0607 -6.0000 0.0000
         vertex -6.0000 -7.0607 0.0000
         vertex -4.0000 -2.9393 0.0000
      endloop
   endfacet
   facet normal 0.0000 0.0000 1.0000
      outer loop
         vertex -4.0000 -2.9393 0.0000
         vertex -6.0000 -7.0607 0.0000
         vertex -2.9393 -4.0000 0.0000
      endloop
   endfacet
   facet normal 0.0000 0.0000 1.0000
      outer loop
         vertex -4.0000 -2.9393 0.0000
         vertex -2.9393 -4.0000 0.0000
         vertex -4.0000 -0.5196 0.0000
      endloop
   endfacet
   facet normal 0.0000 0.0000 1.0000
      outer loop
         vertex -4.0000 -0.5196 0.0000
         vertex -2.9393 -4.0000 0.0000
         vertex -3.7000 0.0000 0.0000
      endloop
   endfacet
   facet normal 0.0000 0.0000 1.0000
      outer loop
         vertex -2.1651 -1.2500 0.0000
         vertex -2.5000 0.0000 0.0000
         vertex -2.9393 -4.0000 0.0000
      endloop
   endfacet
   facet normal 0.0000 0.0000 1.0000
      outer loop
         vertex -2.9393 -4.0000 0.0000
         vertex -2.5000 0.0000 0.0000
         vertex -2.9393 4.0000 0.0000
      endloop
   endfacet
   facet normal 0.0000 0.0000 1.0000
      outer loop
         vertex -2.9393 -4.0000 0.0000
         vertex -2.9393 4.0000 0.0000
         vertex -3.7000 0.0000 0.0000
      endloop
   endfacet
   facet normal 0.0000 0.0000 1.0000
      outer loop
         vertex -3.7000 0.0000 0.0000
         vertex -2.9393 4.0000 0.0000
         vertex -4.0000 2.9393 0.0000
      endloop
   endfacet
   facet normal 0.0000 0.0000 1.0000
      outer loop
         vertex -3.7000 0.0000 0.0000
         vertex -4.0000 2.9393 0.0000
         vertex -4.0000 0.5196 0.0000
      endloop
   endfacet
   facet normal 0.0000 0.0000 1.0000
      outer loop
         vertex 9.0000 10.0000 0.0000
         vertex 3.0000 10.0000 0.0000
         vertex 6.0000 8.0000 0.0000
      endloop
   endfacet
   facet normal 0.0000 0.0000 1.0000
      outer loop
         vertex 9.0000 10.0000 0.0000
         vertex 6.0000 8.0000 0.0000
         vertex 7.0607 6.0000 0.0000
      endloop
   endfacet
   facet normal 0.0000 0.0000 1.0000
      outer loop
         vertex 9.0000 10.0000 0.0000
         vertex 7.0607 6.0000 0.0000
         vertex 8.0000 6.0000 0.0000
      endloop
   endfacet
   facet normal 0.0000 0.0000 1.0000
      outer loop
         vertex 9.0000 10.0000 0.0000
         vertex 8.0000 6.0000 0.0000
         vertex 10.0000 3.0000 0.0000
      endloop
   endfacet
   facet normal 0.0000 0.0000 1.0000
      outer loop
         vertex 9.0000 10.0000 0.0000
         vertex 10.0000 3.0000 0.0000
         vertex 9.5000 9.8660 0.0000
      endloop
   endfacet
   facet normal 0.0000 0.0000 1.0000
      outer loop
         vertex 9.8660 9.5000 0.0000
         vertex 9.5000 9.8660 0.0000
         vertex 10.0000 3.0000 0.0000
      endloop
   endfacet
   facet normal 0.0000 0.0000 1.0000
      outer loop
         vertex 9.8660 9.5000 0.0000
         vertex 10.0000 3.0000 0.0000
         vertex 10.0000 9.0000 0.0000
      endloop
   endfacet
   facet normal 0.0000 0.0000 1.0000
      outer loop
         vertex 4.0000 -2.9393 0.0000
         vertex 3.7000 -0.0000 0.0000
         vertex 2.9393 4.0000 0.0000
      endloop
   endfacet
   facet normal 0.0000 0.0000 1.0000
      outer loop
         vertex 2.9393 4.0000 0.0000
         vertex 3.7000 -0.0000 0.0000
         vertex 4.0000 2.9393 0.0000
      endloop
   endfacet
   facet normal 0.0000 0.0000 1.0000
      outer loop
         vertex 2.9393 4.0000 0.0000
         vertex 4.0000 2.9393 0.0000
         vertex 6.0000 7.0607 0.0000
      endloop
   endfacet
   facet normal 0.0000 0.0000 1.0000
      outer loop
         vertex 6.0000 7.0607 0.0000
         vertex 4.0000 2.9393 0.0000
         vertex 7.0607 6.0000 0.0000
      endloop
   endfacet
   facet normal 0.0000 0.0000 1.0000
      outer loop
         vertex 6.0000 7.0607 0.0000
         vertex 7.0607 6.0000 0.0000
         vertex 6.0000 8.0000 0.0000
      endloop
   endfacet
   facet normal 0.0000 0.0000 1.0000
      outer loop
         vertex 8.0000 -3.0000 0.0000
         vertex 8.0000 -6.0000 0.0000
         vertex 9.0000 -10.0000 0.0000
      endloop
   endfacet
   facet normal 0.0000 0.0000 1.0000
      outer loop
         vertex 9.0000 -10.0000 0.0000
         vertex 8.0000 -6.0000 0.0000
         vertex 7.0607 -6.0000 0.0000
      endloop
   endfacet
   facet normal 0.0000 0.0000 1.0000
      outer loop
         vertex 9.0000 -10.0000 0.0000
         vertex 7.0607 -6.0000 0.0000
         vertex 6.0000 -7.0607 0.0000
      endloop
   endfacet
   facet normal 0.0000 0.0000 1.0000
      outer loop
         vertex 6.0000 -7.0607 0.0000
         vertex 7.0607 -6.0000 0.0000
         vertex 4.0000 -2.9393 0.0000
      endloop
   endfacet
   facet normal 0.0000 0.0000 1.0000
      outer loop
         vertex 6.0000 -7.0607 0.0000
         vertex 4.0000 -2.9393 0.0000
         vertex 2.9393 -4.0000 0.0000
      endloop
   endfacet
   facet normal 0.0000 0.0000 1.0000
      outer loop
         vertex 2.9393 -4.0000 0.0000
         vertex 4.0000 -2.9393 0.0000
         vertex 2.9393 4.0000 0.0000
      endloop
   endfacet
   facet normal 0.0000 0.0000 1.0000
      outer loop
         vertex 2.9393 -4.0000 0.0000
         vertex 2.9393 4.0000 0.0000
         vertex 2.5000 -0.0000 0.0000
      endloop
   endfacet
   facet normal 0.0000 0.0000 1.0000
      outer loop
         vertex 2.5000 -0.0000 0.0000
         vertex 2.9393 4.0000 0.0000
         vertex 2.1651 1.2500 0.0000
      endloop
   endfacet
   facet normal 0.0000 0.0000 1.0000
      outer loop
         vertex 1.2500 2.1651 0.0000
         vertex 2.1651 1.2500 0.0000
         vertex 2.9393 4.0000 0.0000
      endloop
   endfacet
   facet normal 0.0000 0.0000 1.0000
      outer loop
         vertex 1.2500 2.1651 0.0000
         vertex 2.9393 4.0000 0.0000
         vertex 0.5196 4.0000 0.0000
      endloop
   endfacet
   facet normal 0.0000 0.0000 1.0000
      outer loop
         vertex 1.2500 2.1651 0.0000
         vertex 0.5196 4.0000 0.0000
         vertex 0.0000 3.7000 0.0000
      endloop
   endfacet
   facet normal 0.0000 0.0000 1.0000
      outer loop
         vertex 1.2500 2.1651 0.0000
         vertex 0.0000 3.7000 0.0000
         vertex 0.0000 2.5000 0.0000
      endloop
   endfacet
   facet normal 0.0000 0.0000 1.0000
      outer loop
         vertex -0.5196 4.0000 0.0000
         vertex -2.9393 4.0000 0.0000
         vertex -2.1651 1.2500 0.0000
      endloop
   endfacet
   facet normal 0.0000 0.0000 1.0000
      outer loop
         vertex -0.5196 4.0000 0.0000
         vertex -2.1651 1.2500 0.0000
         vertex -1.2500 2.1651 0.0000
      endloop
   endfacet
   facet normal 0.0000 0.0000 1.0000
      outer loop
         vertex -0.5196 4.0000 0.0000
         vertex -1.2500 2.1651 0.0000
         vertex 0.0000 2.5000 0.0000
      endloop
   endfacet
   facet normal 0.0000 0.0000 1.0000
      outer loop
         vertex -0.5196 4.0000 0.0000
         vertex 0.0000 2.5000 0.0000
         vertex 0.0000 3.7000 0.0000
      endloop
   endfacet
   facet normal 0.0000 0.0000 1.0000
      outer loop
         vertex 10.0000 -3.0000 0.0000
         vertex 8.0000 -3.0000 0.0000
         vertex 9.0000 -10.0000 0.0000
      endloop
   endfacet
   facet normal 0.0000 0.0000 1.0000
      outer loop
         vertex 10.0000 -3.0000 0.0000
         vertex 9.0000 -10.0000 0.0000
         vertex 9.5000 -9.8660 0.0000
      endloop
   endfacet
   facet normal 0.0000 0.0000 1.0000
      outer loop
         vertex 10.0000 -3.0000 0.0000
         vertex 9.5000 -9.8660 0.0000
         vertex 9.8660 -9.5000 0.0000
      endloop
   endfacet
   facet normal 0.0000 0.0000 1.0000
      outer loop
         vertex 10.0000 -3.0000 0.0000
         vertex 9.8660 -9.5000 0.0000
         vertex 10.0000 -9.0000 0.0000
      endloop
   endfacet
   facet normal 0.0000 0.0000 1.0000
      outer loop
         vertex 9.0000 -10.0000 0.0000
         vertex 6.0000 -7.0607 0.0000
         vertex 6.0000 -8.0000 0.0000
      endloop
   endfacet
   facet normal 0.0000 0.0000 1.0000
      outer loop
         vertex 9.0000 -10.0000 0.0000
         vertex 6.0000 -8.0000 0.0000
         vertex 3.0000 -8.0000 0.0000
      endloop
   endfacet
   facet normal 0.0000 0.0000 1.0000
      outer loop
         vertex 9.0000 -10.0000 0.0000
         vertex 3.0000 -8.0000 0.0000
         vertex 3.0000 -10.0000 0.0000
      endloop
   endfacet
   facet normal 0.0000 0.0000 1.0000
      outer loop
         vertex -6.0000 -8.0000 0.0000
         vertex -9.0000 -10.0000 0.0000
         vertex -3.0000 -10.0000 0.0000
      endloop
   endfacet
   facet normal 0.0000 0.0000 1.0000
      outer loop
         vertex -6.0000 -8.0000 0.0000
         vertex -3.0000 -10.0000 0.0000
         vertex -3.0000 -8.0000 0.0000
      endloop
   endfacet
   facet normal 0.0000 0.0000 1.0000
      outer loop
         vertex -10.0000 -3.0000 0.0000
         vertex -10.0000 -9.0000 0.0000
         vertex -9.8660 -9.5000 0.0000
      endloop
   endfacet
   facet normal 0.0000 0.0000 1.0000
      outer loop
         vertex -10.0000 -3.0000 0.0000
         vertex -9.8660 -9.5000 0.0000
         vertex -8.0000 -3.0000 0.0000
      endloop
   endfacet
   facet normal 0.0000 0.0000 1.0000
      outer loop
         vertex -0.5196 -4.0000 0.0000
         vertex -0.0000 -3.7000 0.0000
         vertex -0.0000 -2.5000 0.0000
      endloop
   endfacet
   facet normal 0.0000 0.0000 1.0000
      outer loop
         vertex -0.0000 -2.5000 0.0000
         vertex -0.0000 -3.7000 0.0000
         vertex 0.5196 -4.0000 0.0000
      endloop
   endfacet
   facet normal 0.0000 0.0000 1.0000
      outer loop
         vertex -0.0000 -2.5000 0.0000
         vertex 0.5196 -4.0000 0.0000
         vertex 1.2500 -2.1651 0.0000
      endloop
   endfacet
   facet normal 0.0000 0.0000 1.0000
      outer loop
         vertex 1.2500 -2.1651 0.0000
         vertex 0.5196 -4.0000 0.0000
         vertex 2.9393 -4.0000 0.0000
      endloop
   endfacet
   facet normal 0.0000 0.0000 1.0000
      outer loop
         vertex 1.2500 -2.1651 0.0000
         vertex 2.9393 -4.0000 0.0000
         vertex 2.1651 -1.2500 0.0000
      endloop
   endfacet
   facet normal 0.0000 0.0000 1.0000
      outer loop
         vertex 2.1651 -1.2500 0.0000
         vertex 2.9393 -4.0000 0.0000
         vertex 2.5000 -0.0000 0.0000
      endloop
   endfacet
   facet normal 0.0000 0.0000 1.0000
      outer loop
         vertex -0.5196 -4.0000 0.0000
         vertex -0.0000 -2.5000 0.0000
         vertex -1.2500 -2.1651 0.0000
      endloop
   endfacet
   facet normal 0.0000 0.0000 1.0000
      outer loop
         vertex -0.5196 -4.0000 0.0000
         vertex -1.2500 -2.1651 0.0000
         vertex -2.1651 -1.2500 0.0000
      endloop
   endfacet
   facet normal 0.0000 0.0000 1.0000
      outer loop
         vertex -0.5196 -4.0000 0.0000
         vertex -2.1651 -1.2500 0.0000
         vertex -2.9393 -4.0000 0.0000
      endloop
   endfacet
   facet normal 0.0000 0.0000 1.0000
      outer loop
         vertex -6.0000 7.0607 0.0000
         vertex -7.0607 6.0000 0.0000
         vertex -4.0000 2.9393 0.0000
      endloop
   endfacet
   facet normal 0.0000 0.0000 1.0000
      outer loop
         vertex -6.0000 7.0607 0.0000
         vertex -4.0000 2.9393 0.0000
         vertex -2.9393 4.0000 0.0000
      endloop
   endfacet
   facet normal 0.0000 0.0000 1.0000
      outer loop
         vertex -2.1651 1.2500 0.0000
         vertex -2.9393 4.0000 0.0000
         vertex -2.5000 0.0000 0.0000
      endloop
   endfacet
   facet normal 0.0000 0.0000 1.0000
      outer loop
         vertex 4.0000 -0.5196 0.0000
         vertex 3.7000 -0.0000 0.0000
         vertex 4.0000 -2.9393 0.0000
      endloop
   endfacet
   facet normal 0.0000 0.0000 1.0000
      outer loop
         vertex 4.0000 2.9393 0.0000
         vertex 3.7000 -0.0000 0.0000
         vertex 4.0000 0.5196 0.0000
      endloop
   endfacet
   facet normal 0.0000 0.0000 1.0000
      outer loop
         vertex 10.0000 3.0000 0.0000
         vertex 8.0000 6.0000 0.0000
         vertex 8.0000 3.0000 0.0000
      endloop
   endfacet
   facet normal 0.0000 0.0000 1.0000
      outer loop
         vertex 6.0000 8.0000 0.0000
         vertex 3.0000 10.0000 0.0000
         vertex 3.0000 8.0000 0.0000
      endloop
   endfacet
   facet normal -0.7071 0.7071 0.0000
      outer loop
         vertex -4.0000 -2.9393 -390.0000
         vertex -7.0607 -6.0000 -390.0000
         vertex -7.0607 -6.0000 0.0000
      endloop
   endfacet
   facet normal -0.7071 0.7071 0.0000
      outer loop
         vertex -4.0000 -2.9393 -390.0000
         vertex -7.0607 -6.0000 0.0000
         vertex -4.0000 -2.9393 0.0000
      endloop
   endfacet
   facet normal -0.7071 0.7071 0.0000
      outer loop
         vertex 6.0000 7.0607 -390.0000
         vertex 2.9393 4.0000 -390.0000
         vertex 2.9393 4.0000 0.0000
      endloop
   endfacet
   facet normal -0.7071 0.7071 0.0000
      outer loop
         vertex 6.0000 7.0607 -390.0000
         vertex 2.9393 4.0000 0.0000
         vertex 6.0000 7.0607 0.0000
      endloop
   endfacet
   facet normal 0.0000 -1.0000 0.0000
      outer loop
         vertex 2.9393 -4.0000 0.0000
         vertex 0.5196 -4.0000 0.0000
         vertex 0.5196 -4.0000 -390.0000
      endloop
   endfacet
   facet normal 0.0000 -1.0000 0.0000
      outer loop
         vertex 2.9393 -4.0000 0.0000
         vertex 0.5196 -4.0000 -390.0000
         vertex 2.9393 -4.0000 -390.0000
      endloop
   endfacet
   facet normal 0.0000 -1.0000 0.0000
      outer loop
         vertex -2.9393 -4.0000 -390.0000
         vertex -0.5196 -4.0000 -390.0000
         vertex -0.5196 -4.0000 0.0000
      endloop
   endfacet
   facet normal 0.0000 -1.0000 0.0000
      outer loop
         vertex -2.9393 -4.0000 -390.0000
         vertex -0.5196 -4.0000 0.0000
         vertex -2.9393 -4.0000 0.0000
      endloop
   endfacet
   facet normal -1.0000 -0.0000 0.0000
      outer loop
         vertex 8.0000 6.0000 -390.0000
         vertex 8.0000 3.0000 -390.0000
         vertex 8.0000 3.0000 0.0000
      endloop
   endfacet
   facet normal -1.0000 -0.0000 0.0000
      outer loop
         vertex 8.0000 6.0000 -390.0000
         vertex 8.0000 3.0000 0.0000
         vertex 8.0000 6.0000 0.0000
      endloop
   endfacet
   facet normal -1.0000 -0.0000 0.0000
      outer loop
         vertex 8.0000 -3.0000 -390.0000
         vertex 8.0000 -6.0000 -390.0000
         vertex 8.0000 -6.0000 0.0000
      endloop
   endfacet
   facet normal -1.0000 -0.0000 0.0000
      outer loop
         vertex 8.0000 -3.0000 -390.0000
         vertex 8.0000 -6.0000 0.0000
         vertex 8.0000 -3.0000 0.0000
      endloop
   endfacet
   facet normal 0.0000 -1.0000 0.0000
      outer loop
         vertex 10.0000 3.0000 0.0000
         vertex 8.0000 3.0000 0.0000
         vertex 8.0000 3.0000 -390.0000
      endloop
   endfacet
   facet normal 0.0000 -1.0000 0.0000
      outer loop
         vertex 10.0000 3.0000 0.0000
         vertex 8.0000 3.0000 -390.0000
         vertex 10.0000 3.0000 -390.0000
      endloop
   endfacet
   facet normal 0.0000 1.0000 0.0000
      outer loop
         vertex 9.0000 10.0000 -390.0000
         vertex 3.0000 10.0000 -390.0000
         vertex 3.0000 10.0000 0.0000
      endloop
   endfacet
   facet normal 0.0000 1.0000 0.0000
      outer loop
         vertex 9.0000 10.0000 -390.0000
         vertex 3.0000 10.0000 0.0000
         vertex 9.0000 10.0000 0.0000
      endloop
   endfacet
   facet normal 0.3399 0.9405 0.0000
      outer loop
         vertex 9.5000 9.8660 -390.0000
         vertex 9.0000 10.0000 -390.0000
         vertex 9.0000 10.0000 0.0000
      endloop
   endfacet
   facet normal 0.4210 0.9071 0.0000
      outer loop
         vertex 9.5000 9.8660 -390.0000
         vertex 9.0000 10.0000 0.0000
         vertex 9.5000 9.8660 0.0000
      endloop
   endfacet
   facet normal 0.6414 0.7672 0.0000
      outer loop
         vertex 9.8660 9.5000 -390.0000
         vertex 9.5000 9.8660 -390.0000
         vertex 9.5000 9.8660 0.0000
      endloop
   endfacet
   facet normal 0.7672 0.6414 0.0000
      outer loop
         vertex 9.8660 9.5000 -390.0000
         vertex 9.5000 9.8660 0.0000
         vertex 9.8660 9.5000 0.0000
      endloop
   endfacet
   facet normal 0.9071 0.4210 0.0000
      outer loop
         vertex 10.0000 9.0000 -390.0000
         vertex 9.8660 9.5000 -390.0000
         vertex 9.8660 9.5000 0.0000
      endloop
   endfacet
   facet normal 0.9405 0.3399 0.0000
      outer loop
         vertex 10.0000 9.0000 -390.0000
         vertex 9.8660 9.5000 0.0000
         vertex 10.0000 9.0000 0.0000
      endloop
   endfacet
   facet normal 1.0000 0.0000 0.0000
      outer loop
         vertex 10.0000 3.0000 -390.0000
         vertex 10.0000 9.0000 -390.0000
         vertex 10.0000 9.0000 0.0000
      endloop
   endfacet
   facet normal 1.0000 0.0000 0.0000
      outer loop
         vertex 10.0000 3.0000 -390.0000
         vertex 10.0000 9.0000 0.0000
         vertex 10.0000 3.0000 0.0000
      endloop
   endfacet
   facet normal 0.0000 1.0000 0.0000
      outer loop
         vertex 10.0000 -3.0000 -390.0000
         vertex 8.0000 -3.0000 -390.0000
         vertex 8.0000 -3.0000 0.0000
      endloop
   endfacet
   facet normal 0.0000 1.0000 0.0000
      outer loop
         vertex 10.0000 -3.0000 -390.0000
         vertex 8.0000 -3.0000 0.0000
         vertex 10.0000 -3.0000 0.0000
      endloop
   endfacet
   facet normal 0.8660 0.5000 0.0000
      outer loop
         vertex 4.0000 -0.5196 -390.0000
         vertex 3.7000 -0.0000 -390.0000
         vertex 3.7000 -0.0000 0.0000
      endloop
   endfacet
   facet normal 0.8660 0.5000 0.0000
      outer loop
         vertex 4.0000 -0.5196 -390.0000
         vertex 3.7000 -0.0000 0.0000
         vertex 4.0000 -0.5196 0.0000
      endloop
   endfacet
   facet normal 1.0000 0.0000 0.0000
      outer loop
         vertex 4.0000 -2.9393 -390.0000
         vertex 4.0000 -0.5196 -390.0000
         vertex 4.0000 -0.5196 0.0000
      endloop
   endfacet
   facet normal 1.0000 0.0000 0.0000
      outer loop
         vertex 4.0000 -2.9393 -390.0000
         vertex 4.0000 -0.5196 0.0000
         vertex 4.0000 -2.9393 0.0000
      endloop
   endfacet
   facet normal -0.5000 -0.8660 0.0000
      outer loop
         vertex -0.0000 -3.7000 -390.0000
         vertex 0.5196 -4.0000 -390.0000
         vertex 0.5196 -4.0000 0.0000
      endloop
   endfacet
   facet normal -0.5000 -0.8660 0.0000
      outer loop
         vertex -0.0000 -3.7000 -390.0000
         vertex 0.5196 -4.0000 0.0000
         vertex -0.0000 -3.7000 0.0000
      endloop
   endfacet
   facet normal 0.0000 0.0000 -1.0000
      outer loop
         vertex 1.8187 1.0500 -15.0000
         vertex 2.1000 0.0000 -15.0000
         vertex 2.0670 0.0000 -15.0000
      endloop
   endfacet
   facet normal 0.0000 0.0000 -1.0000
      outer loop
         vertex 2.0670 0.0000 -15.0000
         vertex 2.1000 0.0000 -15.0000
         vertex 1.8187 -1.0500 -15.0000
      endloop
   endfacet
   facet normal 0.0000 0.0000 -1.0000
      outer loop
         vertex 2.0670 0.0000 -15.0000
         vertex 1.8187 -1.0500 -15.0000
         vertex 1.7901 -1.0335 -15.0000
      endloop
   endfacet
   facet normal 0.0000 0.0000 -1.0000
      outer loop
         vertex 1.7901 -1.0335 -15.0000
         vertex 1.8187 -1.0500 -15.0000
         vertex 1.0500 -1.8187 -15.0000
      endloop
   endfacet
   facet normal 0.0000 0.0000 -1.0000
      outer loop
         vertex 1.7901 -1.0335 -15.0000
         vertex 1.0500 -1.8187 -15.0000
         vertex 1.0335 -1.7901 -15.0000
      endloop
   endfacet
   facet normal 0.0000 0.0000 -1.0000
      outer loop
         vertex 1.0335 -1.7901 -15.0000
         vertex 1.0500 -1.8187 -15.0000
         vertex 0.0000 -2.1000 -15.0000
      endloop
   endfacet
   facet normal 0.0000 0.0000 -1.0000
      outer loop
         vertex 1.0335 -1.7901 -15.0000
         vertex 0.0000 -2.1000 -15.0000
         vertex 0.0000 -2.0670 -15.0000
      endloop
   endfacet
   facet normal 0.0000 0.0000 -1.0000
      outer loop
         vertex 0.0000 -2.0670 -15.0000
         vertex 0.0000 -2.1000 -15.0000
         vertex -1.0335 -1.7901 -15.0000
      endloop
   endfacet
   facet normal 0.0000 0.0000 -1.0000
      outer loop
         vertex -2.1000 -0.0000 -15.0000
         vertex -2.0670 -0.0000 -15.0000
         vertex -1.8187 -1.0500 -15.0000
      endloop
   endfacet
   facet normal 0.0000 0.0000 -1.0000
      outer loop
         vertex -1.8187 -1.0500 -15.0000
         vertex -2.0670 -0.0000 -15.0000
         vertex -1.7901 -1.0335 -15.0000
      endloop
   endfacet
   facet normal 0.0000 0.0000 -1.0000
      outer loop
         vertex -1.8187 -1.0500 -15.0000
         vertex -1.7901 -1.0335 -15.0000
         vertex -1.0500 -1.8187 -15.0000
      endloop
   endfacet
   facet normal 0.0000 0.0000 -1.0000
      outer loop
         vertex -1.0500 -1.8187 -15.0000
         vertex -1.7901 -1.0335 -15.0000
         vertex -1.0335 -1.7901 -15.0000
      endloop
   endfacet
   facet normal 0.0000 0.0000 -1.0000
      outer loop
         vertex -1.0500 -1.8187 -15.0000
         vertex -1.0335 -1.7901 -15.0000
         vertex 0.0000 -2.1000 -15.0000
      endloop
   endfacet
   facet normal 0.0000 0.0000 -1.0000
      outer loop
         vertex 1.7901 1.0335 -15.0000
         vertex 1.0335 1.7901 -15.0000
         vertex 1.0500 1.8187 -15.0000
      endloop
   endfacet
   facet normal 0.0000 0.0000 -1.0000
      outer loop
         vertex 1.7901 1.0335 -15.0000
         vertex 1.0500 1.8187 -15.0000
         vertex 1.8187 1.0500 -15.0000
      endloop
   endfacet
   facet normal 0.0000 0.0000 -1.0000
      outer loop
         vertex 1.7901 1.0335 -15.0000
         vertex 1.8187 1.0500 -15.0000
         vertex 2.0670 0.0000 -15.0000
      endloop
   endfacet
   facet normal 0.0000 0.0000 -1.0000
      outer loop
         vertex -2.0670 -0.0000 -15.0000
         vertex -1.8187 1.0500 -15.0000
         vertex -1.7901 1.0335 -15.0000
      endloop
   endfacet
   facet normal 0.0000 0.0000 -1.0000
      outer loop
         vertex -1.7901 1.0335 -15.0000
         vertex -1.8187 1.0500 -15.0000
         vertex -1.0500 1.8187 -15.0000
      endloop
   endfacet
   facet normal 0.0000 0.0000 -1.0000
      outer loop
         vertex -1.7901 1.0335 -15.0000
         vertex -1.0500 1.8187 -15.0000
         vertex -1.0335 1.7901 -15.0000
      endloop
   endfacet
   facet normal 0.0000 0.0000 -1.0000
      outer loop
         vertex -1.0335 1.7901 -15.0000
         vertex -1.0500 1.8187 -15.0000
         vertex 0.0000 2.1000 -15.0000
      endloop
   endfacet
   facet normal 0.0000 0.0000 -1.0000
      outer loop
         vertex -1.0335 1.7901 -15.0000
         vertex 0.0000 2.1000 -15.0000
         vertex 0.0000 2.0670 -15.0000
      endloop
   endfacet
   facet normal 0.0000 0.0000 -1.0000
      outer loop
         vertex 0.0000 2.0670 -15.0000
         vertex 0.0000 2.1000 -15.0000
         vertex 1.0500 1.8187 -15.0000
      endloop
   endfacet
   facet normal 0.0000 0.0000 -1.0000
      outer loop
         vertex 0.0000 2.0670 -15.0000
         vertex 1.0500 1.8187 -15.0000
         vertex 1.0335 1.7901 -15.0000
      endloop
   endfacet
   facet normal 0.0000 0.0000 -1.0000
      outer loop
         vertex -1.8187 1.0500 -15.0000
         vertex -2.0670 -0.0000 -15.0000
         vertex -2.1000 -0.0000 -15.0000
      endloop
   endfacet
   facet normal 0.0000 0.0000 1.0000
      outer loop
         vertex 1.8187 -1.0500 -375.0000
         vertex 2.1000 0.0000 -375.0000
         vertex 2.0670 0.0000 -375.0000
      endloop
   endfacet
   facet normal 0.0000 0.0000 1.0000
      outer loop
         vertex 2.0670 0.0000 -375.0000
         vertex 2.1000 0.0000 -375.0000
         vertex 1.8187 1.0500 -375.0000
      endloop
   endfacet
   facet normal 0.0000 0.0000 1.0000
      outer loop
         vertex 2.0670 0.0000 -375.0000
         vertex 1.8187 1.0500 -375.0000
         vertex 1.7901 1.0335 -375.0000
      endloop
   endfacet
   facet normal 0.0000 0.0000 1.0000
      outer loop
         vertex 1.7901 1.0335 -375.0000
         vertex 1.8187 1.0500 -375.0000
         vertex 1.0500 1.8187 -375.0000
      endloop
   endfacet
   facet normal 0.0000 0.0000 1.0000
      outer loop
         vertex 1.7901 1.0335 -375.0000
         vertex 1.0500 1.8187 -375.0000
         vertex 1.0335 1.7901 -375.0000
      endloop
   endfacet
   facet normal 0.0000 0.0000 1.0000
      outer loop
         vertex 1.0335 1.7901 -375.0000
         vertex 1.0500 1.8187 -375.0000
         vertex 0.0000 2.1000 -375.0000
      endloop
   endfacet
   facet normal 0.0000 0.0000 1.0000
      outer loop
         vertex 1.0335 1.7901 -375.0000
         vertex 0.0000 2.1000 -375.0000
         vertex 0.0000 2.0670 -375.0000
      endloop
   endfacet
   facet normal 0.0000 0.0000 1.0000
      outer loop
         vertex 0.0000 2.0670 -375.0000
         vertex 0.0000 2.1000 -375.0000
         vertex -1.0335 1.7901 -375.0000
      endloop
   endfacet
   facet normal 0.0000 0.0000 1.0000
      outer loop
         vertex -2.1000 -0.0000 -375.0000
         vertex -2.0670 -0.0000 -375.0000
         vertex -1.8187 1.0500 -375.0000
      endloop
   endfacet
   facet normal 0.0000 0.0000 1.0000
      outer loop
         vertex -1.8187 1.0500 -375.0000
         vertex -2.0670 -0.0000 -375.0000
         vertex -1.7901 1.0335 -375.0000
      endloop
   endfacet
   facet normal 0.0000 0.0000 1.0000
      outer loop
         vertex -1.8187 1.0500 -375.0000
         vertex -1.7901 1.0335 -375.0000
         vertex -1.0500 1.8187 -375.0000
      endloop
   endfacet
   facet normal 0.0000 0.0000 1.0000
      outer loop
         vertex -1.0500 1.8187 -375.0000
         vertex -1.7901 1.0335 -375.0000
         vertex -1.0335 1.7901 -375.0000
      endloop
   endfacet
   facet normal 0.0000 0.0000 1.0000
      outer loop
         vertex -1.0500 1.8187 -375.0000
         vertex -1.0335 1.7901 -375.0000
         vertex 0.0000 2.1000 -375.0000
      endloop
   endfacet
   facet normal 0.0000 0.0000 1.0000
      outer loop
         vertex 0.0000 -2.0670 -375.0000
         vertex 0.0000 -2.1000 -375.0000
         vertex 1.0335 -1.7901 -375.0000
      endloop
   endfacet
   facet normal 0.0000 0.0000 1.0000
      outer loop
         vertex 1.0335 -1.7901 -375.0000
         vertex 0.0000 -2.1000 -375.0000
         vertex 1.0500 -1.8187 -375.0000
      endloop
   endfacet
   facet normal 0.0000 0.0000 1.0000
      outer loop
         vertex 1.0335 -1.7901 -375.0000
         vertex 1.0500 -1.8187 -375.0000
         vertex 1.7901 -1.0335 -375.0000
      endloop
   endfacet
   facet normal 0.0000 0.0000 1.0000
      outer loop
         vertex 1.7901 -1.0335 -375.0000
         vertex 1.0500 -1.8187 -375.0000
         vertex 1.8187 -1.0500 -375.0000
      endloop
   endfacet
   facet normal 0.0000 0.0000 1.0000
      outer loop
         vertex 1.7901 -1.0335 -375.0000
         vertex 1.8187 -1.0500 -375.0000
         vertex 2.0670 0.0000 -375.0000
      endloop
   endfacet
   facet normal 0.0000 0.0000 1.0000
      outer loop
         vertex -2.0670 -0.0000 -375.0000
         vertex -1.8187 -1.0500 -375.0000
         vertex -1.7901 -1.0335 -375.0000
      endloop
   endfacet
   facet normal 0.0000 0.0000 1.0000
      outer loop
         vertex -1.7901 -1.0335 -375.0000
         vertex -1.8187 -1.0500 -375.0000
         vertex -1.0500 -1.8187 -375.0000
      endloop
   endfacet
   facet normal 0.0000 0.0000 1.0000
      outer loop
         vertex -1.7901 -1.0335 -375.0000
         vertex -1.0500 -1.8187 -375.0000
         vertex -1.0335 -1.7901 -375.0000
      endloop
   endfacet
   facet normal 0.0000 0.0000 1.0000
      outer loop
         vertex -1.0335 -1.7901 -375.0000
         vertex -1.0500 -1.8187 -375.0000
         vertex 0.0000 -2.1000 -375.0000
      endloop
   endfacet
   facet normal 0.0000 0.0000 1.0000
      outer loop
         vertex -1.0335 -1.7901 -375.0000
         vertex 0.0000 -2.1000 -375.0000
         vertex 0.0000 -2.0670 -375.0000
      endloop
   endfacet
   facet normal 0.0000 0.0000 1.0000
      outer loop
         vertex -1.8187 -1.0500 -375.0000
         vertex -2.0670 -0.0000 -375.0000
         vertex -2.1000 -0.0000 -375.0000
      endloop
   endfacet
   facet normal 0.9391 0.3437 0.0000
      outer loop
         vertex -2.0670 -0.0000 -375.0000
         vertex -1.7901 -1.0335 -375.0000
         vertex -1.7901 -1.0335 -389.5670
      endloop
   endfacet
   facet normal 0.9851 0.1719 0.0000
      outer loop
         vertex -2.0670 -0.0000 -375.0000
         vertex -1.7901 -1.0335 -389.5670
         vertex -2.0670 -0.0000 -389.5670
      endloop
   endfacet
   facet normal 0.6858 0.1196 -0.7179
      outer loop
         vertex -2.1651 -1.2500 -390.0000
         vertex -2.5000 0.0000 -390.0000
         vertex -2.0670 -0.0000 -389.5670
      endloop
   endfacet
   facet normal 0.6538 0.2393 -0.7179
      outer loop
         vertex -2.1651 -1.2500 -390.0000
         vertex -2.0670 -0.0000 -389.5670
         vertex -1.7901 -1.0335 -389.5670
      endloop
   endfacet
   facet normal 0.7672 0.6414 0.0000
      outer loop
         vertex -1.0335 -1.7901 -389.5670
         vertex -1.7901 -1.0335 -389.5670
         vertex -1.7901 -1.0335 -375.0000
      endloop
   endfacet
   facet normal 0.6414 0.7672 0.0000
      outer loop
         vertex -1.0335 -1.7901 -389.5670
         vertex -1.7901 -1.0335 -375.0000
         vertex -1.0335 -1.7901 -375.0000
      endloop
   endfacet
   facet normal 0.5341 0.4465 -0.7179
      outer loop
         vertex -1.2500 -2.1651 -390.0000
         vertex -2.1651 -1.2500 -390.0000
         vertex -1.7901 -1.0335 -389.5670
      endloop
   endfacet
   facet normal 0.4465 0.5341 -0.7179
      outer loop
         vertex -1.2500 -2.1651 -390.0000
         vertex -1.7901 -1.0335 -389.5670
         vertex -1.0335 -1.7901 -389.5670
      endloop
   endfacet
   facet normal 0.3437 0.9391 0.0000
      outer loop
         vertex 0.0000 -2.0670 -389.5670
         vertex -1.0335 -1.7901 -389.5670
         vertex -1.0335 -1.7901 -375.0000
      endloop
   endfacet
   facet normal 0.1719 0.9851 0.0000
      outer loop
         vertex 0.0000 -2.0670 -389.5670
         vertex -1.0335 -1.7901 -375.0000
         vertex 0.0000 -2.0670 -375.0000
      endloop
   endfacet
   facet normal 0.2393 0.6538 -0.7179
      outer loop
         vertex -0.0000 -2.5000 -390.0000
         vertex -1.2500 -2.1651 -390.0000
         vertex -1.0335 -1.7901 -389.5670
      endloop
   endfacet
   facet normal 0.1196 0.6858 -0.7179
      outer loop
         vertex -0.0000 -2.5000 -390.0000
         vertex -1.0335 -1.7901 -389.5670
         vertex 0.0000 -2.0670 -389.5670
      endloop
   endfacet
   facet normal -0.1719 0.9851 0.0000
      outer loop
         vertex 1.0335 -1.7901 -389.5670
         vertex 0.0000 -2.0670 -389.5670
         vertex 0.0000 -2.0670 -375.0000
      endloop
   endfacet
   facet normal -0.3437 0.9391 0.0000
      outer loop
         vertex 1.0335 -1.7901 -389.5670
         vertex 0.0000 -2.0670 -375.0000
         vertex 1.0335 -1.7901 -375.0000
      endloop
   endfacet
   facet normal -0.1196 0.6858 -0.7179
      outer loop
         vertex -0.0000 -2.5000 -390.0000
         vertex 0.0000 -2.0670 -389.5670
         vertex 1.0335 -1.7901 -389.5670
      endloop
   endfacet
   facet normal -0.2393 0.6538 -0.7179
      outer loop
         vertex -0.0000 -2.5000 -390.0000
         vertex 1.0335 -1.7901 -389.5670
         vertex 1.2500 -2.1651 -390.0000
      endloop
   endfacet
   facet normal -0.6414 0.7672 0.0000
      outer loop
         vertex 1.7901 -1.0335 -389.5670
         vertex 1.0335 -1.7901 -389.5670
         vertex 1.0335 -1.7901 -375.0000
      endloop
   endfacet
   facet normal -0.7672 0.6414 0.0000
      outer loop
         vertex 1.7901 -1.0335 -389.5670
         vertex 1.0335 -1.7901 -375.0000
         vertex 1.7901 -1.0335 -375.0000
      endloop
   endfacet
   facet normal -0.4465 0.5341 -0.7179
      outer loop
         vertex 1.2500 -2.1651 -390.0000
         vertex 1.0335 -1.7901 -389.5670
         vertex 1.7901 -1.0335 -389.5670
      endloop
   endfacet
   facet normal -0.5341 0.4465 -0.7179
      outer loop
         vertex 1.2500 -2.1651 -390.0000
         vertex 1.7901 -1.0335 -389.5670
         vertex 2.1651 -1.2500 -390.0000
      endloop
   endfacet
   facet normal -0.9391 0.3437 0.0000
      outer loop
         vertex 2.0670 0.0000 -389.5670
         vertex 1.7901 -1.0335 -389.5670
         vertex 1.7901 -1.0335 -375.0000
      endloop
   endfacet
   facet normal -0.9851 0.1719 0.0000
      outer loop
         vertex 2.0670 0.0000 -389.5670
         vertex 1.7901 -1.0335 -375.0000
         vertex 2.0670 0.0000 -375.0000
      endloop
   endfacet
   facet normal -0.6538 0.2393 -0.7179
      outer loop
         vertex 2.5000 -0.0000 -390.0000
         vertex 2.1651 -1.2500 -390.0000
         vertex 1.7901 -1.0335 -389.5670
      endloop
   endfacet
   facet normal -0.6858 0.1196 -0.7179
      outer loop
         vertex 2.5000 -0.0000 -390.0000
         vertex 1.7901 -1.0335 -389.5670
         vertex 2.0670 0.0000 -389.5670
      endloop
   endfacet
   facet normal -0.9851 -0.1719 0.0000
      outer loop
         vertex 1.7901 1.0335 -389.5670
         vertex 2.0670 0.0000 -389.5670
         vertex 2.0670 0.0000 -375.0000
      endloop
   endfacet
   facet normal -0.9391 -0.3437 0.0000
      outer loop
         vertex 1.7901 1.0335 -389.5670
         vertex 2.0670 0.0000 -375.0000
         vertex 1.7901 1.0335 -375.0000
      endloop
   endfacet
   facet normal -0.6858 -0.1196 -0.7179
      outer loop
         vertex 2.1651 1.2500 -390.0000
         vertex 2.5000 -0.0000 -390.0000
         vertex 2.0670 0.0000 -389.5670
      endloop
   endfacet
   facet normal -0.6538 -0.2393 -0.7179
      outer loop
         vertex 2.1651 1.2500 -390.0000
         vertex 2.0670 0.0000 -389.5670
         vertex 1.7901 1.0335 -389.5670
      endloop
   endfacet
   facet normal -0.7672 -0.6414 0.0000
      outer loop
         vertex 1.0335 1.7901 -389.5670
         vertex 1.7901 1.0335 -389.5670
         vertex 1.7901 1.0335 -375.0000
      endloop
   endfacet
   facet normal -0.6414 -0.7672 0.0000
      outer loop
         vertex 1.0335 1.7901 -389.5670
         vertex 1.7901 1.0335 -375.0000
         vertex 1.0335 1.7901 -375.0000
      endloop
   endfacet
   facet normal -0.4465 -0.5341 -0.7179
      outer loop
         vertex 1.7901 1.0335 -389.5670
         vertex 1.0335 1.7901 -389.5670
         vertex 1.2500 2.1651 -390.0000
      endloop
   endfacet
   facet normal -0.5341 -0.4465 -0.7179
      outer loop
         vertex 1.7901 1.0335 -389.5670
         vertex 1.2500 2.1651 -390.0000
         vertex 2.1651 1.2500 -390.0000
      endloop
   endfacet
   facet normal -0.1719 -0.9851 0.0000
      outer loop
         vertex 1.0335 1.7901 -375.0000
         vertex 0.0000 2.0670 -375.0000
         vertex -0.0000 2.0670 -389.5670
      endloop
   endfacet
   facet normal -0.3437 -0.9391 0.0000
      outer loop
         vertex 1.0335 1.7901 -375.0000
         vertex -0.0000 2.0670 -389.5670
         vertex 1.0335 1.7901 -389.5670
      endloop
   endfacet
   facet normal -0.2393 -0.6538 -0.7179
      outer loop
         vertex 0.0000 2.5000 -390.0000
         vertex 1.2500 2.1651 -390.0000
         vertex 1.0335 1.7901 -389.5670
      endloop
   endfacet
   facet normal -0.1196 -0.6858 -0.7179
      outer loop
         vertex 0.0000 2.5000 -390.0000
         vertex 1.0335 1.7901 -389.5670
         vertex -0.0000 2.0670 -389.5670
      endloop
   endfacet
   facet normal 0.3437 0.9391 0.0000
      outer loop
         vertex 0.0000 -2.1000 -375.0000
         vertex -1.0500 -1.8187 -375.0000
         vertex -1.0500 -1.8187 -15.0000
      endloop
   endfacet
   facet normal 0.1719 0.9851 0.0000
      outer loop
         vertex 0.0000 -2.1000 -375.0000
         vertex -1.0500 -1.8187 -15.0000
         vertex 0.0000 -2.1000 -15.0000
      endloop
   endfacet
   facet normal 0.7672 0.6414 0.0000
      outer loop
         vertex -1.0500 -1.8187 -375.0000
         vertex -1.8187 -1.0500 -375.0000
         vertex -1.8187 -1.0500 -15.0000
      endloop
   endfacet
   facet normal 0.6414 0.7672 0.0000
      outer loop
         vertex -1.0500 -1.8187 -375.0000
         vertex -1.8187 -1.0500 -15.0000
         vertex -1.0500 -1.8187 -15.0000
      endloop
   endfacet
   facet normal 0.9391 0.3437 0.0000
      outer loop
         vertex -2.1000 -0.0000 -15.0000
         vertex -1.8187 -1.0500 -15.0000
         vertex -1.8187 -1.0500 -375.0000
      endloop
   endfacet
   facet normal 0.9851 0.1719 0.0000
      outer loop
         vertex -2.1000 -0.0000 -15.0000
         vertex -1.8187 -1.0500 -375.0000
         vertex -2.1000 -0.0000 -375.0000
      endloop
   endfacet
   facet normal -0.9391 0.3437 0.0000
      outer loop
         vertex 2.1000 0.0000 -375.0000
         vertex 1.8187 -1.0500 -375.0000
         vertex 1.8187 -1.0500 -15.0000
      endloop
   endfacet
   facet normal -0.9851 0.1719 0.0000
      outer loop
         vertex 2.1000 0.0000 -375.0000
         vertex 1.8187 -1.0500 -15.0000
         vertex 2.1000 0.0000 -15.0000
      endloop
   endfacet
   facet normal -0.6414 0.7672 0.0000
      outer loop
         vertex 1.8187 -1.0500 -375.0000
         vertex 1.0500 -1.8187 -375.0000
         vertex 1.0500 -1.8187 -15.0000
      endloop
   endfacet
   facet normal -0.7672 0.6414 0.0000
      outer loop
         vertex 1.8187 -1.0500 -375.0000
         vertex 1.0500 -1.8187 -15.0000
         vertex 1.8187 -1.0500 -15.0000
      endloop
   endfacet
   facet normal -0.1719 0.9851 0.0000
      outer loop
         vertex 1.0500 -1.8187 -375.0000
         vertex 0.0000 -2.1000 -375.0000
         vertex 0.0000 -2.1000 -15.0000
      endloop
   endfacet
   facet normal -0.3437 0.9391 0.0000
      outer loop
         vertex 1.0500 -1.8187 -375.0000
         vertex 0.0000 -2.1000 -15.0000
         vertex 1.0500 -1.8187 -15.0000
      endloop
   endfacet
   facet normal -0.1719 -0.9851 0.0000
      outer loop
         vertex 1.0500 1.8187 -15.0000
         vertex 0.0000 2.1000 -15.0000
         vertex 0.0000 2.1000 -375.0000
      endloop
   endfacet
   facet normal -0.3437 -0.9391 0.0000
      outer loop
         vertex 1.0500 1.8187 -15.0000
         vertex 0.0000 2.1000 -375.0000
         vertex 1.0500 1.8187 -375.0000
      endloop
   endfacet
   facet normal -0.7672 -0.6414 0.0000
      outer loop
         vertex 1.0500 1.8187 -375.0000
         vertex 1.8187 1.0500 -375.0000
         vertex 1.8187 1.0500 -15.0000
      endloop
   endfacet
   facet normal -0.6414 -0.7672 0.0000
      outer loop
         vertex 1.0500 1.8187 -375.0000
         vertex 1.8187 1.0500 -15.0000
         vertex 1.0500 1.8187 -15.0000
      endloop
   endfacet
   facet normal -0.9851 -0.1719 0.0000
      outer loop
         vertex 1.8187 1.0500 -375.0000
         vertex 2.1000 0.0000 -375.0000
         vertex 2.1000 0.0000 -15.0000
      endloop
   endfacet
   facet normal -0.9391 -0.3437 0.0000
      outer loop
         vertex 1.8187 1.0500 -375.0000
         vertex 2.1000 0.0000 -15.0000
         vertex 1.8187 1.0500 -15.0000
      endloop
   endfacet
   facet normal 0.6538 0.2393 0.7179
      outer loop
         vertex -2.5000 0.0000 0.0000
         vertex -2.1651 -1.2500 0.0000
         vertex -1.7901 -1.0335 -0.4330
      endloop
   endfacet
   facet normal 0.6858 0.1196 0.7179
      outer loop
         vertex -2.5000 0.0000 0.0000
         vertex -1.7901 -1.0335 -0.4330
         vertex -2.0670 -0.0000 -0.4330
      endloop
   endfacet
   facet normal 0.9851 0.1719 0.0000
      outer loop
         vertex -1.7901 -1.0335 -15.0000
         vertex -2.0670 -0.0000 -15.0000
         vertex -2.0670 -0.0000 -0.4330
      endloop
   endfacet
   facet normal 0.9391 0.3437 0.0000
      outer loop
         vertex -1.7901 -1.0335 -15.0000
         vertex -2.0670 -0.0000 -0.4330
         vertex -1.7901 -1.0335 -0.4330
      endloop
   endfacet
   facet normal 0.5341 0.4465 0.7179
      outer loop
         vertex -1.7901 -1.0335 -0.4330
         vertex -2.1651 -1.2500 0.0000
         vertex -1.2500 -2.1651 0.0000
      endloop
   endfacet
   facet normal 0.4465 0.5341 0.7179
      outer loop
         vertex -1.7901 -1.0335 -0.4330
         vertex -1.2500 -2.1651 0.0000
         vertex -1.0335 -1.7901 -0.4330
      endloop
   endfacet
   facet normal 0.7672 0.6414 0.0000
      outer loop
         vertex -1.0335 -1.7901 -15.0000
         vertex -1.7901 -1.0335 -15.0000
         vertex -1.7901 -1.0335 -0.4330
      endloop
   endfacet
   facet normal 0.6414 0.7672 0.0000
      outer loop
         vertex -1.0335 -1.7901 -15.0000
         vertex -1.7901 -1.0335 -0.4330
         vertex -1.0335 -1.7901 -0.4330
      endloop
   endfacet
   facet normal 0.2393 0.6538 0.7179
      outer loop
         vertex -1.0335 -1.7901 -0.4330
         vertex -1.2500 -2.1651 0.0000
         vertex -0.0000 -2.5000 0.0000
      endloop
   endfacet
   facet normal 0.1196 0.6858 0.7179
      outer loop
         vertex -1.0335 -1.7901 -0.4330
         vertex -0.0000 -2.5000 0.0000
         vertex 0.0000 -2.0670 -0.4330
      endloop
   endfacet
   facet normal 0.3437 0.9391 0.0000
      outer loop
         vertex 0.0000 -2.0670 -15.0000
         vertex -1.0335 -1.7901 -15.0000
         vertex -1.0335 -1.7901 -0.4330
      endloop
   endfacet
   facet normal 0.1719 0.9851 0.0000
      outer loop
         vertex 0.0000 -2.0670 -15.0000
         vertex -1.0335 -1.7901 -0.4330
         vertex 0.0000 -2.0670 -0.4330
      endloop
   endfacet
   facet normal -0.1196 0.6858 0.7179
      outer loop
         vertex 1.0335 -1.7901 -0.4330
         vertex 0.0000 -2.0670 -0.4330
         vertex -0.0000 -2.5000 0.0000
      endloop
   endfacet
   facet normal -0.2393 0.6538 0.7179
      outer loop
         vertex 1.0335 -1.7901 -0.4330
         vertex -0.0000 -2.5000 0.0000
         vertex 1.2500 -2.1651 0.0000
      endloop
   endfacet
   facet normal -0.1719 0.9851 0.0000
      outer loop
         vertex 1.0335 -1.7901 -15.0000
         vertex 0.0000 -2.0670 -15.0000
         vertex 0.0000 -2.0670 -0.4330
      endloop
   endfacet
   facet normal -0.3437 0.9391 0.0000
      outer loop
         vertex 1.0335 -1.7901 -15.0000
         vertex 0.0000 -2.0670 -0.4330
         vertex 1.0335 -1.7901 -0.4330
      endloop
   endfacet
   facet normal -0.4465 0.5341 0.7179
      outer loop
         vertex 1.7901 -1.0335 -0.4330
         vertex 1.0335 -1.7901 -0.4330
         vertex 1.2500 -2.1651 0.0000
      endloop
   endfacet
   facet normal -0.5341 0.4465 0.7179
      outer loop
         vertex 1.7901 -1.0335 -0.4330
         vertex 1.2500 -2.1651 0.0000
         vertex 2.1651 -1.2500 0.0000
      endloop
   endfacet
   facet normal -0.6414 0.7672 0.0000
      outer loop
         vertex 1.7901 -1.0335 -15.0000
         vertex 1.0335 -1.7901 -15.0000
         vertex 1.0335 -1.7901 -0.4330
      endloop
   endfacet
   facet normal -0.7672 0.6414 0.0000
      outer loop
         vertex 1.7901 -1.0335 -15.0000
         vertex 1.0335 -1.7901 -0.4330
         vertex 1.7901 -1.0335 -0.4330
      endloop
   endfacet
   facet normal -0.6538 0.2393 0.7179
      outer loop
         vertex 1.7901 -1.0335 -0.4330
         vertex 2.1651 -1.2500 0.0000
         vertex 2.5000 -0.0000 0.0000
      endloop
   endfacet
   facet normal -0.6858 0.1196 0.7179
      outer loop
         vertex 1.7901 -1.0335 -0.4330
         vertex 2.5000 -0.0000 0.0000
         vertex 2.0670 0.0000 -0.4330
      endloop
   endfacet
   facet normal -0.9391 0.3437 0.0000
      outer loop
         vertex 2.0670 0.0000 -15.0000
         vertex 1.7901 -1.0335 -15.0000
         vertex 1.7901 -1.0335 -0.4330
      endloop
   endfacet
   facet normal -0.9851 0.1719 0.0000
      outer loop
         vertex 2.0670 0.0000 -15.0000
         vertex 1.7901 -1.0335 -0.4330
         vertex 2.0670 0.0000 -0.4330
      endloop
   endfacet
   facet normal -0.6858 -0.1196 0.7179
      outer loop
         vertex 1.7901 1.0335 -0.4330
         vertex 2.0670 0.0000 -0.4330
         vertex 2.5000 -0.0000 0.0000
      endloop
   endfacet
   facet normal -0.6538 -0.2393 0.7179
      outer loop
         vertex 1.7901 1.0335 -0.4330
         vertex 2.5000 -0.0000 0.0000
         vertex 2.1651 1.2500 0.0000
      endloop
   endfacet
   facet normal -0.9851 -0.1719 0.0000
      outer loop
         vertex 1.7901 1.0335 -15.0000
         vertex 2.0670 0.0000 -15.0000
         vertex 2.0670 0.0000 -0.4330
      endloop
   endfacet
   facet normal -0.9391 -0.3437 0.0000
      outer loop
         vertex 1.7901 1.0335 -15.0000
         vertex 2.0670 0.0000 -0.4330
         vertex 1.7901 1.0335 -0.4330
      endloop
   endfacet
   facet normal -0.4465 -0.5341 0.7179
      outer loop
         vertex 1.2500 2.1651 0.0000
         vertex 1.0335 1.7901 -0.4330
         vertex 1.7901 1.0335 -0.4330
      endloop
   endfacet
   facet normal -0.5341 -0.4465 0.7179
      outer loop
         vertex 1.2500 2.1651 0.0000
         vertex 1.7901 1.0335 -0.4330
         vertex 2.1651 1.2500 0.0000
      endloop
   endfacet
   facet normal -0.7672 -0.6414 0.0000
      outer loop
         vertex 1.0335 1.7901 -15.0000
         vertex 1.7901 1.0335 -15.0000
         vertex 1.7901 1.0335 -0.4330
      endloop
   endfacet
   facet normal -0.6414 -0.7672 0.0000
      outer loop
         vertex 1.0335 1.7901 -15.0000
         vertex 1.7901 1.0335 -0.4330
         vertex 1.0335 1.7901 -0.4330
      endloop
   endfacet
   facet normal -0.2393 -0.6538 0.7179
      outer loop
         vertex 0.0000 2.0670 -0.4330
         vertex 1.0335 1.7901 -0.4330
         vertex 1.2500 2.1651 0.0000
      endloop
   endfacet
   facet normal -0.1196 -0.6858 0.7179
      outer loop
         vertex 0.0000 2.0670 -0.4330
         vertex 1.2500 2.1651 0.0000
         vertex 0.0000 2.5000 0.0000
      endloop
   endfacet
   facet normal -0.1719 -0.9851 0.0000
      outer loop
         vertex 1.0335 1.7901 -0.4330
         vertex 0.0000 2.0670 -0.4330
         vertex 0.0000 2.0670 -15.0000
      endloop
   endfacet
   facet normal -0.3437 -0.9391 0.0000
      outer loop
         vertex 1.0335 1.7901 -0.4330
         vertex 0.0000 2.0670 -15.0000
         vertex 1.0335 1.7901 -15.0000
      endloop
   endfacet
   facet normal 0.5000 -0.8660 0.0000
      outer loop
         vertex -0.5196 -4.0000 -390.0000
         vertex -0.0000 -3.7000 -390.0000
         vertex -0.0000 -3.7000 0.0000
      endloop
   endfacet
   facet normal 0.5000 -0.8660 0.0000
      outer loop
         vertex -0.5196 -4.0000 -390.0000
         vertex -0.0000 -3.7000 0.0000
         vertex -0.5196 -4.0000 0.0000
      endloop
   endfacet
   facet normal 0.7071 0.7071 0.0000
      outer loop
         vertex 4.0000 -2.9393 0.0000
         vertex 7.0607 -6.0000 0.0000
         vertex 7.0607 -6.0000 -390.0000
      endloop
   endfacet
   facet normal 0.7071 0.7071 0.0000
      outer loop
         vertex 4.0000 -2.9393 0.0000
         vertex 7.0607 -6.0000 -390.0000
         vertex 4.0000 -2.9393 -390.0000
      endloop
   endfacet
   facet normal 1.0000 0.0000 0.0000
      outer loop
         vertex 4.0000 0.5196 -390.0000
         vertex 4.0000 2.9393 -390.0000
         vertex 4.0000 2.9393 0.0000
      endloop
   endfacet
   facet normal 1.0000 0.0000 0.0000
      outer loop
         vertex 4.0000 0.5196 -390.0000
         vertex 4.0000 2.9393 0.0000
         vertex 4.0000 0.5196 0.0000
      endloop
   endfacet
   facet normal 0.8660 -0.5000 0.0000
      outer loop
         vertex 3.7000 -0.0000 -390.0000
         vertex 4.0000 0.5196 -390.0000
         vertex 4.0000 0.5196 0.0000
      endloop
   endfacet
   facet normal 0.8660 -0.5000 0.0000
      outer loop
         vertex 3.7000 -0.0000 -390.0000
         vertex 4.0000 0.5196 0.0000
         vertex 3.7000 -0.0000 0.0000
      endloop
   endfacet
   facet normal 0.0000 -1.0000 0.0000
      outer loop
         vertex 8.0000 6.0000 0.0000
         vertex 7.0607 6.0000 0.0000
         vertex 7.0607 6.0000 -390.0000
      endloop
   endfacet
   facet normal 0.0000 -1.0000 0.0000
      outer loop
         vertex 8.0000 6.0000 0.0000
         vertex 7.0607 6.0000 -390.0000
         vertex 8.0000 6.0000 -390.0000
      endloop
   endfacet
   facet normal 0.7071 -0.7071 0.0000
      outer loop
         vertex 4.0000 2.9393 -390.0000
         vertex 7.0607 6.0000 -390.0000
         vertex 7.0607 6.0000 0.0000
      endloop
   endfacet
   facet normal 0.7071 -0.7071 0.0000
      outer loop
         vertex 4.0000 2.9393 -390.0000
         vertex 7.0607 6.0000 0.0000
         vertex 4.0000 2.9393 0.0000
      endloop
   endfacet
   facet normal -1.0000 -0.0000 0.0000
      outer loop
         vertex 3.0000 -8.0000 -390.0000
         vertex 3.0000 -10.0000 -390.0000
         vertex 3.0000 -10.0000 0.0000
      endloop
   endfacet
   facet normal -1.0000 -0.0000 0.0000
      outer loop
         vertex 3.0000 -8.0000 -390.0000
         vertex 3.0000 -10.0000 0.0000
         vertex 3.0000 -8.0000 0.0000
      endloop
   endfacet
   facet normal 0.0000 1.0000 0.0000
      outer loop
         vertex 3.0000 -8.0000 0.0000
         vertex 6.0000 -8.0000 0.0000
         vertex 6.0000 -8.0000 -390.0000
      endloop
   endfacet
   facet normal 0.0000 1.0000 0.0000
      outer loop
         vertex 3.0000 -8.0000 0.0000
         vertex 6.0000 -8.0000 -390.0000
         vertex 3.0000 -8.0000 -390.0000
      endloop
   endfacet
   facet normal 1.0000 0.0000 0.0000
      outer loop
         vertex 10.0000 -9.0000 -390.0000
         vertex 10.0000 -3.0000 -390.0000
         vertex 10.0000 -3.0000 0.0000
      endloop
   endfacet
   facet normal 1.0000 0.0000 0.0000
      outer loop
         vertex 10.0000 -9.0000 -390.0000
         vertex 10.0000 -3.0000 0.0000
         vertex 10.0000 -9.0000 0.0000
      endloop
   endfacet
   facet normal 0.9405 -0.3399 0.0000
      outer loop
         vertex 9.8660 -9.5000 -390.0000
         vertex 10.0000 -9.0000 -390.0000
         vertex 10.0000 -9.0000 0.0000
      endloop
   endfacet
   facet normal 0.9071 -0.4210 0.0000
      outer loop
         vertex 9.8660 -9.5000 -390.0000
         vertex 10.0000 -9.0000 0.0000
         vertex 9.8660 -9.5000 0.0000
      endloop
   endfacet
   facet normal 0.7672 -0.6414 0.0000
      outer loop
         vertex 9.5000 -9.8660 -390.0000
         vertex 9.8660 -9.5000 -390.0000
         vertex 9.8660 -9.5000 0.0000
      endloop
   endfacet
   facet normal 0.6414 -0.7672 0.0000
      outer loop
         vertex 9.5000 -9.8660 -390.0000
         vertex 9.8660 -9.5000 0.0000
         vertex 9.5000 -9.8660 0.0000
      endloop
   endfacet
   facet normal 0.4210 -0.9071 0.0000
      outer loop
         vertex 9.0000 -10.0000 -390.0000
         vertex 9.5000 -9.8660 -390.0000
         vertex 9.5000 -9.8660 0.0000
      endloop
   endfacet
   facet normal 0.3399 -0.9405 0.0000
      outer loop
         vertex 9.0000 -10.0000 -390.0000
         vertex 9.5000 -9.8660 0.0000
         vertex 9.0000 -10.0000 0.0000
      endloop
   endfacet
   facet normal 0.0000 -1.0000 0.0000
      outer loop
         vertex 3.0000 -10.0000 -390.0000
         vertex 9.0000 -10.0000 -390.0000
         vertex 9.0000 -10.0000 0.0000
      endloop
   endfacet
   facet normal 0.0000 -1.0000 0.0000
      outer loop
         vertex 3.0000 -10.0000 -390.0000
         vertex 9.0000 -10.0000 0.0000
         vertex 3.0000 -10.0000 0.0000
      endloop
   endfacet
   facet normal -1.0000 -0.0000 0.0000
      outer loop
         vertex 6.0000 -7.0607 -390.0000
         vertex 6.0000 -8.0000 -390.0000
         vertex 6.0000 -8.0000 0.0000
      endloop
   endfacet
   facet normal -1.0000 -0.0000 0.0000
      outer loop
         vertex 6.0000 -7.0607 -390.0000
         vertex 6.0000 -8.0000 0.0000
         vertex 6.0000 -7.0607 0.0000
      endloop
   endfacet
   facet normal -0.7071 -0.7071 0.0000
      outer loop
         vertex 2.9393 -4.0000 -390.0000
         vertex 6.0000 -7.0607 -390.0000
         vertex 6.0000 -7.0607 0.0000
      endloop
   endfacet
   facet normal -0.7071 -0.7071 0.0000
      outer loop
         vertex 2.9393 -4.0000 -390.0000
         vertex 6.0000 -7.0607 0.0000
         vertex 2.9393 -4.0000 0.0000
      endloop
   endfacet
   facet normal 0.0000 1.0000 0.0000
      outer loop
         vertex 8.0000 -6.0000 -390.0000
         vertex 7.0607 -6.0000 -390.0000
         vertex 7.0607 -6.0000 0.0000
      endloop
   endfacet
   facet normal 0.0000 1.0000 0.0000
      outer loop
         vertex 8.0000 -6.0000 -390.0000
         vertex 7.0607 -6.0000 0.0000
         vertex 8.0000 -6.0000 0.0000
      endloop
   endfacet
   facet normal 1.0000 0.0000 0.0000
      outer loop
         vertex -6.0000 -7.0607 0.0000
         vertex -6.0000 -8.0000 0.0000
         vertex -6.0000 -8.0000 -390.0000
      endloop
   endfacet
   facet normal 1.0000 0.0000 0.0000
      outer loop
         vertex -6.0000 -7.0607 0.0000
         vertex -6.0000 -8.0000 -390.0000
         vertex -6.0000 -7.0607 -390.0000
      endloop
   endfacet
   facet normal 0.0000 -1.0000 0.0000
      outer loop
         vertex -9.0000 -10.0000 -390.0000
         vertex -3.0000 -10.0000 -390.0000
         vertex -3.0000 -10.0000 0.0000
      endloop
   endfacet
   facet normal 0.0000 -1.0000 0.0000
      outer loop
         vertex -9.0000 -10.0000 -390.0000
         vertex -3.0000 -10.0000 0.0000
         vertex -9.0000 -10.0000 0.0000
      endloop
   endfacet
   facet normal -0.3399 -0.9405 0.0000
      outer loop
         vertex -9.5000 -9.8660 -390.0000
         vertex -9.0000 -10.0000 -390.0000
         vertex -9.0000 -10.0000 0.0000
      endloop
   endfacet
   facet normal -0.4210 -0.9071 0.0000
      outer loop
         vertex -9.5000 -9.8660 -390.0000
         vertex -9.0000 -10.0000 0.0000
         vertex -9.5000 -9.8660 0.0000
      endloop
   endfacet
   facet normal -0.6414 -0.7672 0.0000
      outer loop
         vertex -9.8660 -9.5000 -390.0000
         vertex -9.5000 -9.8660 -390.0000
         vertex -9.5000 -9.8660 0.0000
      endloop
   endfacet
   facet normal -0.7672 -0.6414 0.0000
      outer loop
         vertex -9.8660 -9.5000 -390.0000
         vertex -9.5000 -9.8660 0.0000
         vertex -9.8660 -9.5000 0.0000
      endloop
   endfacet
   facet normal -0.9071 -0.4210 0.0000
      outer loop
         vertex -10.0000 -9.0000 -390.0000
         vertex -9.8660 -9.5000 -390.0000
         vertex -9.8660 -9.5000 0.0000
      endloop
   endfacet
   facet normal -0.9405 -0.3399 0.0000
      outer loop
         vertex -10.0000 -9.0000 -390.0000
         vertex -9.8660 -9.5000 0.0000
         vertex -10.0000 -9.0000 0.0000
      endloop
   endfacet
   facet normal -1.0000 -0.0000 0.0000
      outer loop
         vertex -10.0000 -3.0000 -390.0000
         vertex -10.0000 -9.0000 -390.0000
         vertex -10.0000 -9.0000 0.0000
      endloop
   endfacet
   facet normal -1.0000 -0.0000 0.0000
      outer loop
         vertex -10.0000 -3.0000 -390.0000
         vertex -10.0000 -9.0000 0.0000
         vertex -10.0000 -3.0000 0.0000
      endloop
   endfacet
   facet normal 0.0000 1.0000 0.0000
      outer loop
         vertex -6.0000 -8.0000 0.0000
         vertex -3.0000 -8.0000 0.0000
         vertex -3.0000 -8.0000 -390.0000
      endloop
   endfacet
   facet normal 0.0000 1.0000 0.0000
      outer loop
         vertex -6.0000 -8.0000 0.0000
         vertex -3.0000 -8.0000 -390.0000
         vertex -6.0000 -8.0000 -390.0000
      endloop
   endfacet
   facet normal 1.0000 0.0000 0.0000
      outer loop
         vertex -3.0000 -8.0000 0.0000
         vertex -3.0000 -10.0000 0.0000
         vertex -3.0000 -10.0000 -390.0000
      endloop
   endfacet
   facet normal 1.0000 0.0000 0.0000
      outer loop
         vertex -3.0000 -8.0000 0.0000
         vertex -3.0000 -10.0000 -390.0000
         vertex -3.0000 -8.0000 -390.0000
      endloop
   endfacet
   facet normal 0.7071 -0.7071 0.0000
      outer loop
         vertex -6.0000 -7.0607 -390.0000
         vertex -2.9393 -4.0000 -390.0000
         vertex -2.9393 -4.0000 0.0000
      endloop
   endfacet
   facet normal 0.7071 -0.7071 0.0000
      outer loop
         vertex -6.0000 -7.0607 -390.0000
         vertex -2.9393 -4.0000 0.0000
         vertex -6.0000 -7.0607 0.0000
      endloop
   endfacet
   facet normal 0.0000 1.0000 0.0000
      outer loop
         vertex -2.9393 4.0000 0.0000
         vertex -0.5196 4.0000 0.0000
         vertex -0.5196 4.0000 -390.0000
      endloop
   endfacet
   facet normal 0.0000 1.0000 0.0000
      outer loop
         vertex -2.9393 4.0000 0.0000
         vertex -0.5196 4.0000 -390.0000
         vertex -2.9393 4.0000 -390.0000
      endloop
   endfacet
   facet normal 0.0000 1.0000 0.0000
      outer loop
         vertex 0.5196 4.0000 0.0000
         vertex 2.9393 4.0000 0.0000
         vertex 2.9393 4.0000 -390.0000
      endloop
   endfacet
   facet normal 0.0000 1.0000 0.0000
      outer loop
         vertex 0.5196 4.0000 0.0000
         vertex 2.9393 4.0000 -390.0000
         vertex 0.5196 4.0000 -390.0000
      endloop
   endfacet
   facet normal -0.5000 0.8660 0.0000
      outer loop
         vertex 0.5196 4.0000 -390.0000
         vertex 0.0000 3.7000 -390.0000
         vertex 0.0000 3.7000 0.0000
      endloop
   endfacet
   facet normal -0.5000 0.8660 0.0000
      outer loop
         vertex 0.5196 4.0000 -390.0000
         vertex 0.0000 3.7000 0.0000
         vertex 0.5196 4.0000 0.0000
      endloop
   endfacet
   facet normal 0.0000 1.0000 0.0000
      outer loop
         vertex -8.0000 -3.0000 -390.0000
         vertex -10.0000 -3.0000 -390.0000
         vertex -10.0000 -3.0000 0.0000
      endloop
   endfacet
   facet normal 0.0000 1.0000 0.0000
      outer loop
         vertex -8.0000 -3.0000 -390.0000
         vertex -10.0000 -3.0000 0.0000
         vertex -8.0000 -3.0000 0.0000
      endloop
   endfacet
   facet normal 1.0000 0.0000 0.0000
      outer loop
         vertex -8.0000 -6.0000 -390.0000
         vertex -8.0000 -3.0000 -390.0000
         vertex -8.0000 -3.0000 0.0000
      endloop
   endfacet
   facet normal 1.0000 0.0000 0.0000
      outer loop
         vertex -8.0000 -6.0000 -390.0000
         vertex -8.0000 -3.0000 0.0000
         vertex -8.0000 -6.0000 0.0000
      endloop
   endfacet
   facet normal 0.0000 1.0000 0.0000
      outer loop
         vertex -7.0607 -6.0000 -390.0000
         vertex -8.0000 -6.0000 -390.0000
         vertex -8.0000 -6.0000 0.0000
      endloop
   endfacet
   facet normal 0.0000 1.0000 0.0000
      outer loop
         vertex -7.0607 -6.0000 -390.0000
         vertex -8.0000 -6.0000 0.0000
         vertex -7.0607 -6.0000 0.0000
      endloop
   endfacet
   facet normal -0.8660 0.5000 0.0000
      outer loop
         vertex -3.7000 0.0000 -390.0000
         vertex -4.0000 -0.5196 -390.0000
         vertex -4.0000 -0.5196 0.0000
      endloop
   endfacet
   facet normal -0.8660 0.5000 0.0000
      outer loop
         vertex -3.7000 0.0000 -390.0000
         vertex -4.0000 -0.5196 0.0000
         vertex -3.7000 0.0000 0.0000
      endloop
   endfacet
   facet normal -1.0000 -0.0000 0.0000
      outer loop
         vertex -4.0000 -0.5196 -390.0000
         vertex -4.0000 -2.9393 -390.0000
         vertex -4.0000 -2.9393 0.0000
      endloop
   endfacet
   facet normal -1.0000 -0.0000 0.0000
      outer loop
         vertex -4.0000 -0.5196 -390.0000
         vertex -4.0000 -2.9393 0.0000
         vertex -4.0000 -0.5196 0.0000
      endloop
   endfacet
   facet normal 0.1719 -0.9851 0.0000
      outer loop
         vertex -1.0335 1.7901 -389.5670
         vertex -0.0000 2.0670 -389.5670
         vertex 0.0000 2.0670 -375.0000
      endloop
   endfacet
   facet normal 0.3437 -0.9391 0.0000
      outer loop
         vertex -1.0335 1.7901 -389.5670
         vertex 0.0000 2.0670 -375.0000
         vertex -1.0335 1.7901 -375.0000
      endloop
   endfacet
   facet normal 0.2393 -0.6538 -0.7179
      outer loop
         vertex -1.0335 1.7901 -389.5670
         vertex -1.2500 2.1651 -390.0000
         vertex 0.0000 2.5000 -390.0000
      endloop
   endfacet
   facet normal 0.1196 -0.6858 -0.7179
      outer loop
         vertex -1.0335 1.7901 -389.5670
         vertex 0.0000 2.5000 -390.0000
         vertex -0.0000 2.0670 -389.5670
      endloop
   endfacet
   facet normal 0.6414 -0.7672 0.0000
      outer loop
         vertex -1.7901 1.0335 -389.5670
         vertex -1.0335 1.7901 -389.5670
         vertex -1.0335 1.7901 -375.0000
      endloop
   endfacet
   facet normal 0.7672 -0.6414 0.0000
      outer loop
         vertex -1.7901 1.0335 -389.5670
         vertex -1.0335 1.7901 -375.0000
         vertex -1.7901 1.0335 -375.0000
      endloop
   endfacet
   facet normal 0.5341 -0.4465 -0.7179
      outer loop
         vertex -1.7901 1.0335 -389.5670
         vertex -2.1651 1.2500 -390.0000
         vertex -1.2500 2.1651 -390.0000
      endloop
   endfacet
   facet normal 0.4465 -0.5341 -0.7179
      outer loop
         vertex -1.7901 1.0335 -389.5670
         vertex -1.2500 2.1651 -390.0000
         vertex -1.0335 1.7901 -389.5670
      endloop
   endfacet
   facet normal 0.9391 -0.3437 0.0000
      outer loop
         vertex -2.0670 -0.0000 -389.5670
         vertex -1.7901 1.0335 -389.5670
         vertex -1.7901 1.0335 -375.0000
      endloop
   endfacet
   facet normal 0.9851 -0.1719 0.0000
      outer loop
         vertex -2.0670 -0.0000 -389.5670
         vertex -1.7901 1.0335 -375.0000
         vertex -2.0670 -0.0000 -375.0000
      endloop
   endfacet
   facet normal 0.6858 -0.1196 -0.7179
      outer loop
         vertex -2.0670 -0.0000 -389.5670
         vertex -2.5000 0.0000 -390.0000
         vertex -2.1651 1.2500 -390.0000
      endloop
   endfacet
   facet normal 0.6538 -0.2393 -0.7179
      outer loop
         vertex -2.0670 -0.0000 -389.5670
         vertex -2.1651 1.2500 -390.0000
         vertex -1.7901 1.0335 -389.5670
      endloop
   endfacet
   facet normal 0.9391 -0.3437 0.0000
      outer loop
         vertex -2.1000 -0.0000 -375.0000
         vertex -1.8187 1.0500 -375.0000
         vertex -1.8187 1.0500 -15.0000
      endloop
   endfacet
   facet normal 0.9851 -0.1719 0.0000
      outer loop
         vertex -2.1000 -0.0000 -375.0000
         vertex -1.8187 1.0500 -15.0000
         vertex -2.1000 -0.0000 -15.0000
      endloop
   endfacet
   facet normal 0.6414 -0.7672 0.0000
      outer loop
         vertex -1.8187 1.0500 -375.0000
         vertex -1.0500 1.8187 -375.0000
         vertex -1.0500 1.8187 -15.0000
      endloop
   endfacet
   facet normal 0.7672 -0.6414 0.0000
      outer loop
         vertex -1.8187 1.0500 -375.0000
         vertex -1.0500 1.8187 -15.0000
         vertex -1.8187 1.0500 -15.0000
      endloop
   endfacet
   facet normal 0.1719 -0.9851 0.0000
      outer loop
         vertex -1.0500 1.8187 -375.0000
         vertex 0.0000 2.1000 -375.0000
         vertex 0.0000 2.1000 -15.0000
      endloop
   endfacet
   facet normal 0.3437 -0.9391 0.0000
      outer loop
         vertex -1.0500 1.8187 -375.0000
         vertex 0.0000 2.1000 -15.0000
         vertex -1.0500 1.8187 -15.0000
      endloop
   endfacet
   facet normal 0.2393 -0.6538 0.7179
      outer loop
         vertex 0.0000 2.5000 0.0000
         vertex -1.2500 2.1651 0.0000
         vertex -1.0335 1.7901 -0.4330
      endloop
   endfacet
   facet normal 0.1196 -0.6858 0.7179
      outer loop
         vertex 0.0000 2.5000 0.0000
         vertex -1.0335 1.7901 -0.4330
         vertex 0.0000 2.0670 -0.4330
      endloop
   endfacet
   facet normal 0.1719 -0.9851 0.0000
      outer loop
         vertex -1.0335 1.7901 -15.0000
         vertex 0.0000 2.0670 -15.0000
         vertex 0.0000 2.0670 -0.4330
      endloop
   endfacet
   facet normal 0.3437 -0.9391 0.0000
      outer loop
         vertex -1.0335 1.7901 -15.0000
         vertex 0.0000 2.0670 -0.4330
         vertex -1.0335 1.7901 -0.4330
      endloop
   endfacet
   facet normal 0.5341 -0.4465 0.7179
      outer loop
         vertex -1.2500 2.1651 0.0000
         vertex -2.1651 1.2500 0.0000
         vertex -1.7901 1.0335 -0.4330
      endloop
   endfacet
   facet normal 0.4465 -0.5341 0.7179
      outer loop
         vertex -1.2500 2.1651 0.0000
         vertex -1.7901 1.0335 -0.4330
         vertex -1.0335 1.7901 -0.4330
      endloop
   endfacet
   facet normal 0.6414 -0.7672 0.0000
      outer loop
         vertex -1.7901 1.0335 -15.0000
         vertex -1.0335 1.7901 -15.0000
         vertex -1.0335 1.7901 -0.4330
      endloop
   endfacet
   facet normal 0.7672 -0.6414 0.0000
      outer loop
         vertex -1.7901 1.0335 -15.0000
         vertex -1.0335 1.7901 -0.4330
         vertex -1.7901 1.0335 -0.4330
      endloop
   endfacet
   facet normal 0.6858 -0.1196 0.7179
      outer loop
         vertex -2.1651 1.2500 0.0000
         vertex -2.5000 0.0000 0.0000
         vertex -2.0670 -0.0000 -0.4330
      endloop
   endfacet
   facet normal 0.6538 -0.2393 0.7179
      outer loop
         vertex -2.1651 1.2500 0.0000
         vertex -2.0670 -0.0000 -0.4330
         vertex -1.7901 1.0335 -0.4330
      endloop
   endfacet
   facet normal 0.9391 -0.3437 0.0000
      outer loop
         vertex -2.0670 -0.0000 -15.0000
         vertex -1.7901 1.0335 -15.0000
         vertex -1.7901 1.0335 -0.4330
      endloop
   endfacet
   facet normal 0.9851 -0.1719 0.0000
      outer loop
         vertex -2.0670 -0.0000 -15.0000
         vertex -1.7901 1.0335 -0.4330
         vertex -2.0670 -0.0000 -0.4330
      endloop
   endfacet
   facet normal -0.8660 -0.5000 0.0000
      outer loop
         vertex -4.0000 0.5196 -390.0000
         vertex -3.7000 0.0000 -390.0000
         vertex -3.7000 0.0000 0.0000
      endloop
   endfacet
   facet normal -0.8660 -0.5000 0.0000
      outer loop
         vertex -4.0000 0.5196 -390.0000
         vertex -3.7000 0.0000 0.0000
         vertex -4.0000 0.5196 0.0000
      endloop
   endfacet
   facet normal -1.0000 -0.0000 0.0000
      outer loop
         vertex -4.0000 2.9393 -390.0000
         vertex -4.0000 0.5196 -390.0000
         vertex -4.0000 0.5196 0.0000
      endloop
   endfacet
   facet normal -1.0000 -0.0000 0.0000
      outer loop
         vertex -4.0000 2.9393 -390.0000
         vertex -4.0000 0.5196 0.0000
         vertex -4.0000 2.9393 0.0000
      endloop
   endfacet
   facet normal 1.0000 0.0000 0.0000
      outer loop
         vertex -8.0000 6.0000 0.0000
         vertex -8.0000 3.0000 0.0000
         vertex -8.0000 3.0000 -390.0000
      endloop
   endfacet
   facet normal 1.0000 0.0000 0.0000
      outer loop
         vertex -8.0000 6.0000 0.0000
         vertex -8.0000 3.0000 -390.0000
         vertex -8.0000 6.0000 -390.0000
      endloop
   endfacet
   facet normal 0.0000 -1.0000 0.0000
      outer loop
         vertex -8.0000 3.0000 0.0000
         vertex -10.0000 3.0000 0.0000
         vertex -10.0000 3.0000 -390.0000
      endloop
   endfacet
   facet normal 0.0000 -1.0000 0.0000
      outer loop
         vertex -8.0000 3.0000 0.0000
         vertex -10.0000 3.0000 -390.0000
         vertex -8.0000 3.0000 -390.0000
      endloop
   endfacet
   facet normal 0.5000 0.8660 0.0000
      outer loop
         vertex 0.0000 3.7000 -390.0000
         vertex -0.5196 4.0000 -390.0000
         vertex -0.5196 4.0000 0.0000
      endloop
   endfacet
   facet normal 0.5000 0.8660 0.0000
      outer loop
         vertex 0.0000 3.7000 -390.0000
         vertex -0.5196 4.0000 0.0000
         vertex 0.0000 3.7000 0.0000
      endloop
   endfacet
   facet normal -0.7071 -0.7071 0.0000
      outer loop
         vertex -7.0607 6.0000 -390.0000
         vertex -4.0000 2.9393 -390.0000
         vertex -4.0000 2.9393 0.0000
      endloop
   endfacet
   facet normal -0.7071 -0.7071 0.0000
      outer loop
         vertex -7.0607 6.0000 -390.0000
         vertex -4.0000 2.9393 0.0000
         vertex -7.0607 6.0000 0.0000
      endloop
   endfacet
   facet normal 0.7071 0.7071 0.0000
      outer loop
         vertex -2.9393 4.0000 -390.0000
         vertex -6.0000 7.0607 -390.0000
         vertex -6.0000 7.0607 0.0000
      endloop
   endfacet
   facet normal 0.7071 0.7071 0.0000
      outer loop
         vertex -2.9393 4.0000 -390.0000
         vertex -6.0000 7.0607 0.0000
         vertex -2.9393 4.0000 0.0000
      endloop
   endfacet
   facet normal -1.0000 -0.0000 0.0000
      outer loop
         vertex -10.0000 9.0000 -390.0000
         vertex -10.0000 3.0000 -390.0000
         vertex -10.0000 3.0000 0.0000
      endloop
   endfacet
   facet normal -1.0000 -0.0000 0.0000
      outer loop
         vertex -10.0000 9.0000 -390.0000
         vertex -10.0000 3.0000 0.0000
         vertex -10.0000 9.0000 0.0000
      endloop
   endfacet
   facet normal -0.9405 0.3399 0.0000
      outer loop
         vertex -9.8660 9.5000 -390.0000
         vertex -10.0000 9.0000 -390.0000
         vertex -10.0000 9.0000 0.0000
      endloop
   endfacet
   facet normal -0.9071 0.4210 0.0000
      outer loop
         vertex -9.8660 9.5000 -390.0000
         vertex -10.0000 9.0000 0.0000
         vertex -9.8660 9.5000 0.0000
      endloop
   endfacet
   facet normal -0.7672 0.6414 0.0000
      outer loop
         vertex -9.5000 9.8660 -390.0000
         vertex -9.8660 9.5000 -390.0000
         vertex -9.8660 9.5000 0.0000
      endloop
   endfacet
   facet normal -0.6414 0.7672 0.0000
      outer loop
         vertex -9.5000 9.8660 -390.0000
         vertex -9.8660 9.5000 0.0000
         vertex -9.5000 9.8660 0.0000
      endloop
   endfacet
   facet normal -0.4210 0.9071 0.0000
      outer loop
         vertex -9.0000 10.0000 -390.0000
         vertex -9.5000 9.8660 -390.0000
         vertex -9.5000 9.8660 0.0000
      endloop
   endfacet
   facet normal -0.3399 0.9405 0.0000
      outer loop
         vertex -9.0000 10.0000 -390.0000
         vertex -9.5000 9.8660 0.0000
         vertex -9.0000 10.0000 0.0000
      endloop
   endfacet
   facet normal 0.0000 1.0000 0.0000
      outer loop
         vertex -3.0000 10.0000 -390.0000
         vertex -9.0000 10.0000 -390.0000
         vertex -9.0000 10.0000 0.0000
      endloop
   endfacet
   facet normal 0.0000 1.0000 0.0000
      outer loop
         vertex -3.0000 10.0000 -390.0000
         vertex -9.0000 10.0000 0.0000
         vertex -3.0000 10.0000 0.0000
      endloop
   endfacet
   facet normal 0.0000 -1.0000 0.0000
      outer loop
         vertex -7.0607 6.0000 0.0000
         vertex -8.0000 6.0000 0.0000
         vertex -8.0000 6.0000 -390.0000
      endloop
   endfacet
   facet normal 0.0000 -1.0000 0.0000
      outer loop
         vertex -7.0607 6.0000 0.0000
         vertex -8.0000 6.0000 -390.0000
         vertex -7.0607 6.0000 -390.0000
      endloop
   endfacet
   facet normal -1.0000 -0.0000 0.0000
      outer loop
         vertex 3.0000 10.0000 -390.0000
         vertex 3.0000 8.0000 -390.0000
         vertex 3.0000 8.0000 0.0000
      endloop
   endfacet
   facet normal -1.0000 -0.0000 0.0000
      outer loop
         vertex 3.0000 10.0000 -390.0000
         vertex 3.0000 8.0000 0.0000
         vertex 3.0000 10.0000 0.0000
      endloop
   endfacet
   facet normal 0.0000 -1.0000 0.0000
      outer loop
         vertex 6.0000 8.0000 0.0000
         vertex 3.0000 8.0000 0.0000
         vertex 3.0000 8.0000 -390.0000
      endloop
   endfacet
   facet normal 0.0000 -1.0000 0.0000
      outer loop
         vertex 6.0000 8.0000 0.0000
         vertex 3.0000 8.0000 -390.0000
         vertex 6.0000 8.0000 -390.0000
      endloop
   endfacet
   facet normal -1.0000 -0.0000 0.0000
      outer loop
         vertex 6.0000 8.0000 -390.0000
         vertex 6.0000 7.0607 -390.0000
         vertex 6.0000 7.0607 0.0000
      endloop
   endfacet
   facet normal -1.0000 -0.0000 0.0000
      outer loop
         vertex 6.0000 8.0000 -390.0000
         vertex 6.0000 7.0607 0.0000
         vertex 6.0000 8.0000 0.0000
      endloop
   endfacet
   facet normal 0.0000 -1.0000 0.0000
      outer loop
         vertex -3.0000 8.0000 0.0000
         vertex -6.0000 8.0000 0.0000
         vertex -6.0000 8.0000 -390.0000
      endloop
   endfacet
   facet normal 0.0000 -1.0000 0.0000
      outer loop
         vertex -3.0000 8.0000 0.0000
         vertex -6.0000 8.0000 -390.0000
         vertex -3.0000 8.0000 -390.0000
      endloop
   endfacet
   facet normal 1.0000 0.0000 0.0000
      outer loop
         vertex -3.0000 10.0000 0.0000
         vertex -3.0000 8.0000 0.0000
         vertex -3.0000 8.0000 -390.0000
      endloop
   endfacet
   facet normal 1.0000 0.0000 0.0000
      outer loop
         vertex -3.0000 10.0000 0.0000
         vertex -3.0000 8.0000 -390.0000
         vertex -3.0000 10.0000 -390.0000
      endloop
   endfacet
   facet normal 1.0000 0.0000 0.0000
      outer loop
         vertex -6.0000 8.0000 0.0000
         vertex -6.0000 7.0607 0.0000
         vertex -6.0000 7.0607 -390.0000
      endloop
   endfacet
   facet normal 1.0000 0.0000 0.0000
      outer loop
         vertex -6.0000 8.0000 0.0000
         vertex -6.0000 7.0607 -390.0000
         vertex -6.0000 8.0000 -390.0000
      endloop
   endfacet
endsolid
